<svg width="83" height="89" viewBox="0 0 83 89" fill="none" xmlns="http://www.w3.org/2000/svg">
<mask id="path-1-outside-1_6278_1919" maskUnits="userSpaceOnUse" x="-0.96" y="-0.800049" width="84" height="90" fill="black">
<rect fill="white" x="-0.96" y="-0.800049" width="84" height="90"/>
<path d="M21.04 87.4C14.56 87.4 9.6 85.56 6.16 81.88C2.72 78.2 1 73 1 66.28V22.1199C1 15.3999 2.72 10.1999 6.16 6.51995C9.6 2.83995 14.56 0.999947 21.04 0.999947C27.52 0.999947 32.48 2.83995 35.92 6.51995C39.36 10.1999 41.08 15.3999 41.08 22.1199V66.28C41.08 73 39.36 78.2 35.92 81.88C32.48 85.56 27.52 87.4 21.04 87.4ZM21.04 75.4C25.6 75.4 27.88 72.64 27.88 67.12V21.28C27.88 15.7599 25.6 12.9999 21.04 12.9999C16.48 12.9999 14.2 15.7599 14.2 21.28V67.12C14.2 72.64 16.48 75.4 21.04 75.4ZM68.4869 22.1199H54.6869V12.7599C58.4469 12.7599 61.4469 12.4399 63.6869 11.8C66.0069 11.1599 67.8469 10.1199 69.2069 8.67995C70.5669 7.15995 71.7669 4.99995 72.8069 2.19995H81.6869V86.2H68.4869V22.1199Z"/>
</mask>
<path d="M21.04 87.4C14.56 87.4 9.6 85.56 6.16 81.88C2.72 78.2 1 73 1 66.28V22.1199C1 15.3999 2.72 10.1999 6.16 6.51995C9.6 2.83995 14.56 0.999947 21.04 0.999947C27.52 0.999947 32.48 2.83995 35.92 6.51995C39.36 10.1999 41.08 15.3999 41.08 22.1199V66.28C41.08 73 39.36 78.2 35.92 81.88C32.48 85.56 27.52 87.4 21.04 87.4ZM21.04 75.4C25.6 75.4 27.88 72.64 27.88 67.12V21.28C27.88 15.7599 25.6 12.9999 21.04 12.9999C16.48 12.9999 14.2 15.7599 14.2 21.28V67.12C14.2 72.64 16.48 75.4 21.04 75.4ZM68.4869 22.1199H54.6869V12.7599C58.4469 12.7599 61.4469 12.4399 63.6869 11.8C66.0069 11.1599 67.8469 10.1199 69.2069 8.67995C70.5669 7.15995 71.7669 4.99995 72.8069 2.19995H81.6869V86.2H68.4869V22.1199Z" fill="white" fill-opacity="0.11"/>
<path d="M6.16 81.88L6.89053 81.1971V81.1971L6.16 81.88ZM6.16 6.51994L6.89053 7.20283V7.20283L6.16 6.51994ZM35.92 6.51994L35.1895 7.20283H35.1895L35.92 6.51994ZM35.92 81.88L35.1895 81.1971H35.1895L35.92 81.88ZM21.04 87.3999V86.3999C14.7531 86.3999 10.0909 84.6207 6.89053 81.1971L6.16 81.88L5.42947 82.5628C9.10909 86.4992 14.3669 88.3999 21.04 88.3999V87.3999ZM6.16 81.88L6.89053 81.1971C3.67492 77.7571 2 72.833 2 66.28H1H0C0 73.1669 1.76508 78.6428 5.42947 82.5628L6.16 81.88ZM1 66.28H2V22.1199H1H0V66.28H1ZM1 22.1199H2C2 15.5669 3.67492 10.6428 6.89053 7.20283L6.16 6.51994L5.42947 5.83707C1.76508 9.75711 0 15.233 0 22.1199H1ZM6.16 6.51994L6.89053 7.20283C10.0909 3.77916 14.7531 1.99995 21.04 1.99995V0.999947V-5.34058e-05C14.3669 -5.34058e-05 9.10909 1.90073 5.42947 5.83707L6.16 6.51994ZM21.04 0.999947V1.99995C27.3269 1.99995 31.9891 3.77916 35.1895 7.20283L35.92 6.51994L36.6505 5.83707C32.9709 1.90073 27.7131 -5.34058e-05 21.04 -5.34058e-05V0.999947ZM35.92 6.51994L35.1895 7.20283C38.4051 10.6428 40.08 15.5669 40.08 22.1199H41.08H42.08C42.08 15.233 40.3149 9.75711 36.6505 5.83707L35.92 6.51994ZM41.08 22.1199H40.08V66.28H41.08H42.08V22.1199H41.08ZM41.08 66.28H40.08C40.08 72.833 38.4051 77.7571 35.1895 81.1971L35.92 81.88L36.6505 82.5628C40.3149 78.6428 42.08 73.1669 42.08 66.28H41.08ZM35.92 81.88L35.1895 81.1971C31.9891 84.6207 27.3269 86.3999 21.04 86.3999V87.3999V88.3999C27.7131 88.3999 32.9709 86.4992 36.6505 82.5628L35.92 81.88ZM21.04 75.3999V76.3999C23.5298 76.3999 25.561 75.6373 26.941 73.9668C28.2907 72.333 28.88 69.9926 28.88 67.1199H27.88H26.88C26.88 69.7673 26.3293 71.5669 25.399 72.6931C24.499 73.7826 23.1102 74.3999 21.04 74.3999V75.3999ZM27.88 67.1199H28.88V21.28H27.88H26.88V67.1199H27.88ZM27.88 21.28H28.88C28.88 18.4073 28.2907 16.0669 26.941 14.4331C25.561 12.7626 23.5298 11.9999 21.04 11.9999V12.9999V13.9999C23.1102 13.9999 24.499 14.6173 25.399 15.7068C26.3293 16.833 26.88 18.6326 26.88 21.28H27.88ZM21.04 12.9999V11.9999C18.5502 11.9999 16.519 12.7626 15.139 14.4331C13.7893 16.0669 13.2 18.4073 13.2 21.28H14.2H15.2C15.2 18.6326 15.7507 16.833 16.681 15.7068C17.581 14.6173 18.9698 13.9999 21.04 13.9999V12.9999ZM14.2 21.28H13.2V67.1199H14.2H15.2V21.28H14.2ZM14.2 67.1199H13.2C13.2 69.9926 13.7893 72.333 15.139 73.9668C16.519 75.6373 18.5502 76.3999 21.04 76.3999V75.3999V74.3999C18.9698 74.3999 17.581 73.7826 16.681 72.6931C15.7507 71.5669 15.2 69.7673 15.2 67.1199H14.2ZM68.4869 22.1199H69.4869V21.1199H68.4869V22.1199ZM54.6869 22.1199H53.6869V23.1199H54.6869V22.1199ZM54.6869 12.7599V11.7599H53.6869V12.7599H54.6869ZM63.6869 11.7999L63.4209 10.8359L63.4122 10.8384L63.6869 11.7999ZM69.2069 8.67995L69.9339 9.36657L69.9431 9.35678L69.9521 9.34674L69.2069 8.67995ZM72.8069 2.19994V1.19994H72.1115L71.8695 1.85176L72.8069 2.19994ZM81.6869 2.19994H82.6869V1.19994H81.6869V2.19994ZM81.6869 86.2V87.2H82.6869V86.2H81.6869ZM68.4869 86.2H67.4869V87.2H68.4869V86.2ZM68.4869 22.1199V21.1199H54.6869V22.1199V23.1199H68.4869V22.1199ZM54.6869 22.1199H55.6869V12.7599H54.6869H53.6869V22.1199H54.6869ZM54.6869 12.7599V13.7599C58.4903 13.7599 61.5947 13.4377 63.9616 12.7615L63.6869 11.7999L63.4122 10.8384C61.2991 11.4422 58.4034 11.7599 54.6869 11.7599V12.7599ZM63.6869 11.7999L63.9528 12.7639C66.411 12.0858 68.4239 10.9654 69.9339 9.36657L69.2069 8.67995L68.4799 7.99332C67.2698 9.27452 65.6027 10.2341 63.4209 10.836L63.6869 11.7999ZM69.2069 8.67995L69.9521 9.34674C71.4248 7.70083 72.6792 5.41579 73.7443 2.54813L72.8069 2.19994L71.8695 1.85176C70.8546 4.58411 69.709 6.61906 68.4616 8.01315L69.2069 8.67995ZM72.8069 2.19994V3.19994H81.6869V2.19994V1.19994H72.8069V2.19994ZM81.6869 2.19994H80.6869V86.2H81.6869H82.6869V2.19994H81.6869ZM81.6869 86.2V85.2H68.4869V86.2V87.2H81.6869V86.2ZM68.4869 86.2H69.4869V22.1199H68.4869H67.4869V86.2H68.4869Z" fill="white" fill-opacity="0.2" mask="url(#path-1-outside-1_6278_1919)"/>
</svg>
