<svg width="91" height="89" viewBox="0 0 91 89" fill="none" xmlns="http://www.w3.org/2000/svg">
<mask id="path-1-outside-1_6278_1929" maskUnits="userSpaceOnUse" x="-0.959991" y="-0.800049" width="92" height="90" fill="black">
<rect fill="white" x="-0.959991" y="-0.800049" width="92" height="90"/>
<path d="M21.04 87.4C14.56 87.4 9.60001 85.56 6.16001 81.88C2.72001 78.2 1.00001 73 1.00001 66.28V22.1199C1.00001 15.3999 2.72001 10.1999 6.16001 6.51995C9.60001 2.83995 14.56 0.999947 21.04 0.999947C27.52 0.999947 32.48 2.83995 35.92 6.51995C39.36 10.1999 41.08 15.3999 41.08 22.1199V66.28C41.08 73 39.36 78.2 35.92 81.88C32.48 85.56 27.52 87.4 21.04 87.4ZM21.04 75.4C25.6 75.4 27.88 72.64 27.88 67.12V21.28C27.88 15.7599 25.6 12.9999 21.04 12.9999C16.48 12.9999 14.2 15.7599 14.2 21.28V67.12C14.2 72.64 16.48 75.4 21.04 75.4ZM49.7669 77.08C49.7669 71.08 50.7269 65.96 52.6469 61.7199C54.5669 57.3999 58.0069 52.6399 62.9669 47.4399C67.8469 42.2399 71.2069 37.7999 73.0469 34.1199C74.9669 30.4399 75.9269 26.5999 75.9269 22.5999C75.9269 18.9999 75.3269 16.5199 74.1269 15.16C73.0069 13.7199 71.3269 12.9999 69.0869 12.9999C64.5269 12.9999 62.2469 15.7599 62.2469 21.28V30.2799H49.7669V22.1199C49.7669 15.3199 51.4469 10.1199 54.8069 6.51995C58.1669 2.83995 63.0469 0.999947 69.4469 0.999947C75.8469 0.999947 80.7269 2.83995 84.0869 6.51995C87.4469 10.1199 89.1269 15.3199 89.1269 22.1199C89.1269 27.2399 87.8869 32.2399 85.4069 37.12C83.0069 41.9999 78.8069 47.5999 72.8069 53.9199C68.8869 58.0799 66.2469 61.4799 64.8869 64.1199C63.5269 66.6799 62.8469 69.44 62.8469 72.4V74.2H87.9269V86.2H49.7669V77.08Z"/>
</mask>
<path d="M21.04 87.4C14.56 87.4 9.60001 85.56 6.16001 81.88C2.72001 78.2 1.00001 73 1.00001 66.28V22.1199C1.00001 15.3999 2.72001 10.1999 6.16001 6.51995C9.60001 2.83995 14.56 0.999947 21.04 0.999947C27.52 0.999947 32.48 2.83995 35.92 6.51995C39.36 10.1999 41.08 15.3999 41.08 22.1199V66.28C41.08 73 39.36 78.2 35.92 81.88C32.48 85.56 27.52 87.4 21.04 87.4ZM21.04 75.4C25.6 75.4 27.88 72.64 27.88 67.12V21.28C27.88 15.7599 25.6 12.9999 21.04 12.9999C16.48 12.9999 14.2 15.7599 14.2 21.28V67.12C14.2 72.64 16.48 75.4 21.04 75.4ZM49.7669 77.08C49.7669 71.08 50.7269 65.96 52.6469 61.7199C54.5669 57.3999 58.0069 52.6399 62.9669 47.4399C67.8469 42.2399 71.2069 37.7999 73.0469 34.1199C74.9669 30.4399 75.9269 26.5999 75.9269 22.5999C75.9269 18.9999 75.3269 16.5199 74.1269 15.16C73.0069 13.7199 71.3269 12.9999 69.0869 12.9999C64.5269 12.9999 62.2469 15.7599 62.2469 21.28V30.2799H49.7669V22.1199C49.7669 15.3199 51.4469 10.1199 54.8069 6.51995C58.1669 2.83995 63.0469 0.999947 69.4469 0.999947C75.8469 0.999947 80.7269 2.83995 84.0869 6.51995C87.4469 10.1199 89.1269 15.3199 89.1269 22.1199C89.1269 27.2399 87.8869 32.2399 85.4069 37.12C83.0069 41.9999 78.8069 47.5999 72.8069 53.9199C68.8869 58.0799 66.2469 61.4799 64.8869 64.1199C63.5269 66.6799 62.8469 69.44 62.8469 72.4V74.2H87.9269V86.2H49.7669V77.08Z" fill="white" fill-opacity="0.11"/>
<path d="M6.16001 81.88L6.89054 81.1971V81.1971L6.16001 81.88ZM6.16001 6.51994L6.89054 7.20283V7.20283L6.16001 6.51994ZM35.92 6.51994L35.1895 7.20283H35.1895L35.92 6.51994ZM35.92 81.88L35.1895 81.1971H35.1895L35.92 81.88ZM21.04 87.3999V86.3999C14.7531 86.3999 10.0909 84.6207 6.89054 81.1971L6.16001 81.88L5.42948 82.5628C9.1091 86.4992 14.3669 88.3999 21.04 88.3999V87.3999ZM6.16001 81.88L6.89054 81.1971C3.67493 77.7571 2.00001 72.833 2.00001 66.28H1.00001H8.58307e-06C8.58307e-06 73.1669 1.76509 78.6428 5.42948 82.5628L6.16001 81.88ZM1.00001 66.28H2.00001V22.1199H1.00001H8.58307e-06V66.28H1.00001ZM1.00001 22.1199H2.00001C2.00001 15.5669 3.67493 10.6428 6.89054 7.20283L6.16001 6.51994L5.42948 5.83707C1.76509 9.75711 8.58307e-06 15.233 8.58307e-06 22.1199H1.00001ZM6.16001 6.51994L6.89054 7.20283C10.0909 3.77916 14.7531 1.99995 21.04 1.99995V0.999947V-5.34058e-05C14.3669 -5.34058e-05 9.1091 1.90073 5.42948 5.83707L6.16001 6.51994ZM21.04 0.999947V1.99995C27.3269 1.99995 31.9891 3.77916 35.1895 7.20283L35.92 6.51994L36.6505 5.83707C32.9709 1.90073 27.7131 -5.34058e-05 21.04 -5.34058e-05V0.999947ZM35.92 6.51994L35.1895 7.20283C38.4051 10.6428 40.08 15.5669 40.08 22.1199H41.08H42.08C42.08 15.233 40.3149 9.75711 36.6505 5.83707L35.92 6.51994ZM41.08 22.1199H40.08V66.28H41.08H42.08V22.1199H41.08ZM41.08 66.28H40.08C40.08 72.833 38.4051 77.7571 35.1895 81.1971L35.92 81.88L36.6505 82.5628C40.3149 78.6428 42.08 73.1669 42.08 66.28H41.08ZM35.92 81.88L35.1895 81.1971C31.9891 84.6207 27.3269 86.3999 21.04 86.3999V87.3999V88.3999C27.7131 88.3999 32.9709 86.4992 36.6505 82.5628L35.92 81.88ZM21.04 75.3999V76.3999C23.5298 76.3999 25.5611 75.6373 26.941 73.9668C28.2907 72.333 28.88 69.9926 28.88 67.1199H27.88H26.88C26.88 69.7673 26.3294 71.5669 25.399 72.6931C24.499 73.7826 23.1102 74.3999 21.04 74.3999V75.3999ZM27.88 67.1199H28.88V21.28H27.88H26.88V67.1199H27.88ZM27.88 21.28H28.88C28.88 18.4073 28.2907 16.0669 26.941 14.4331C25.5611 12.7626 23.5298 11.9999 21.04 11.9999V12.9999V13.9999C23.1102 13.9999 24.499 14.6173 25.399 15.7068C26.3294 16.833 26.88 18.6326 26.88 21.28H27.88ZM21.04 12.9999V11.9999C18.5502 11.9999 16.519 12.7626 15.139 14.4331C13.7894 16.0669 13.2 18.4073 13.2 21.28H14.2H15.2C15.2 18.6326 15.7507 16.833 16.681 15.7068C17.5811 14.6173 18.9698 13.9999 21.04 13.9999V12.9999ZM14.2 21.28H13.2V67.1199H14.2H15.2V21.28H14.2ZM14.2 67.1199H13.2C13.2 69.9926 13.7894 72.333 15.139 73.9668C16.519 75.6373 18.5502 76.3999 21.04 76.3999V75.3999V74.3999C18.9698 74.3999 17.5811 73.7826 16.681 72.6931C15.7507 71.5669 15.2 69.7673 15.2 67.1199H14.2ZM52.6469 61.7199L53.5579 62.1325L53.5607 62.1261L52.6469 61.7199ZM62.9669 47.4399L63.6905 48.1302L63.6961 48.1243L62.9669 47.4399ZM73.0469 34.1199L72.1603 33.6574L72.1563 33.665L72.1525 33.6727L73.0469 34.1199ZM74.1269 15.16L73.3375 15.7739L73.3566 15.7983L73.377 15.8216L74.1269 15.16ZM62.2469 30.2799V31.2799H63.2469V30.2799H62.2469ZM49.7669 30.2799H48.7669V31.2799H49.7669V30.2799ZM54.8069 6.51994L55.538 7.20231L55.5454 7.19421L54.8069 6.51994ZM84.0869 6.51994L83.3484 7.19426L83.3558 7.20226L84.0869 6.51994ZM85.4069 37.1199L84.5153 36.6669L84.5095 36.6786L85.4069 37.1199ZM72.8069 53.92L72.0816 53.2314L72.0791 53.2341L72.8069 53.92ZM64.8869 64.1199L65.7701 64.5891L65.7759 64.5779L64.8869 64.1199ZM62.8469 74.2H61.8469V75.2H62.8469V74.2ZM87.9269 74.2H88.9269V73.2H87.9269V74.2ZM87.9269 86.2V87.2H88.9269V86.2H87.9269ZM49.7669 86.2H48.7669V87.2H49.7669V86.2ZM49.7669 77.0799H50.7669C50.7669 71.1827 51.7109 66.2111 53.5578 62.1325L52.6469 61.7199L51.7359 61.3074C49.7429 65.7088 48.7669 70.9772 48.7669 77.0799H49.7669ZM52.6469 61.7199L53.5607 62.1261C55.4164 57.9507 58.7729 53.2857 63.6905 48.1302L62.9669 47.4399L62.2433 46.7497C57.2409 51.9942 53.7173 56.8492 51.7331 61.3138L52.6469 61.7199ZM62.9669 47.4399L63.6961 48.1243C68.6014 42.8973 72.0376 38.3746 73.9413 34.5672L73.0469 34.1199L72.1525 33.6727C70.3762 37.2253 67.0924 41.5826 62.2377 46.7556L62.9669 47.4399ZM73.0469 34.1199L73.9335 34.5825C75.9251 30.7653 76.9269 26.7672 76.9269 22.5999H75.9269H74.9269C74.9269 26.4327 74.0087 30.1146 72.1603 33.6574L73.0469 34.1199ZM75.9269 22.5999H76.9269C76.9269 18.9618 76.3355 16.1516 74.8767 14.4983L74.1269 15.16L73.377 15.8216C74.3183 16.8883 74.9269 19.0381 74.9269 22.5999H75.9269ZM74.1269 15.16L74.9162 14.546C73.5636 12.8069 71.5575 11.9999 69.0869 11.9999V12.9999V13.9999C71.0962 13.9999 72.4502 14.633 73.3375 15.7739L74.1269 15.16ZM69.0869 12.9999V11.9999C66.5971 11.9999 64.5658 12.7626 63.1859 14.4331C61.8362 16.0669 61.2469 18.4073 61.2469 21.28H62.2469H63.2469C63.2469 18.6326 63.7975 16.833 64.7278 15.7068C65.6279 14.6173 67.0167 13.9999 69.0869 13.9999V12.9999ZM62.2469 21.28H61.2469V30.2799H62.2469H63.2469V21.28H62.2469ZM62.2469 30.2799V29.2799H49.7669V30.2799V31.2799H62.2469V30.2799ZM49.7669 30.2799H50.7669V22.1199H49.7669H48.7669V30.2799H49.7669ZM49.7669 22.1199H50.7669C50.7669 15.4758 52.4074 10.5564 55.5379 7.20226L54.8069 6.51994L54.0758 5.83763C50.4864 9.68346 48.7669 15.1641 48.7669 22.1199H49.7669ZM54.8069 6.51994L55.5454 7.19421C58.6654 3.77705 63.243 1.99995 69.4469 1.99995V0.999947V-5.34058e-05C62.8507 -5.34058e-05 57.6684 1.90285 54.0684 5.84568L54.8069 6.51994ZM69.4469 0.999947V1.99995C75.6507 1.99995 80.2284 3.77705 83.3484 7.19421L84.0869 6.51994L84.8254 5.84568C81.2254 1.90285 76.043 -5.34058e-05 69.4469 -5.34058e-05V0.999947ZM84.0869 6.51994L83.3558 7.20226C86.4864 10.5564 88.1269 15.4758 88.1269 22.1199H89.1269H90.1269C90.1269 15.1641 88.4074 9.68346 84.8179 5.83763L84.0869 6.51994ZM89.1269 22.1199H88.1269C88.1269 27.0717 86.9291 31.9173 84.5154 36.6669L85.4069 37.1199L86.2984 37.573C88.8447 32.5626 90.1269 27.4082 90.1269 22.1199H89.1269ZM85.4069 37.1199L84.5095 36.6786C82.1727 41.4303 78.0486 46.9462 72.0817 53.2314L72.8069 53.92L73.5321 54.6085C79.5651 48.2537 83.8411 42.5696 86.3042 37.5613L85.4069 37.1199ZM72.8069 53.92L72.0791 53.2341C68.1426 57.4117 65.4238 60.894 63.9979 63.662L64.8869 64.1199L65.7759 64.5779C67.0699 62.0659 69.6312 58.7482 73.5347 54.6058L72.8069 53.92ZM64.8869 64.1199L64.0038 63.6508C62.5654 66.3584 61.8469 69.28 61.8469 72.3999H62.8469H63.8469C63.8469 69.5999 64.4884 67.0015 65.77 64.5891L64.8869 64.1199ZM62.8469 72.3999H61.8469V74.2H62.8469H63.8469V72.3999H62.8469ZM62.8469 74.2V75.2H87.9269V74.2V73.2H62.8469V74.2ZM87.9269 74.2H86.9269V86.2H87.9269H88.9269V74.2H87.9269ZM87.9269 86.2V85.2H49.7669V86.2V87.2H87.9269V86.2ZM49.7669 86.2H50.7669V77.0799H49.7669H48.7669V86.2H49.7669Z" fill="white" fill-opacity="0.2" mask="url(#path-1-outside-1_6278_1929)"/>
</svg>
