<svg width="90" height="89" viewBox="0 0 90 89" fill="none" xmlns="http://www.w3.org/2000/svg">
<mask id="path-1-outside-1_6278_1939" maskUnits="userSpaceOnUse" x="-0.960022" y="-0.800049" width="91" height="90" fill="black">
<rect fill="white" x="-0.960022" y="-0.800049" width="91" height="90"/>
<path d="M21.04 87.4C14.56 87.4 9.59998 85.56 6.15998 81.88C2.71998 78.2 0.999978 73 0.999978 66.28V22.1199C0.999978 15.3999 2.71998 10.1999 6.15998 6.51995C9.59998 2.83995 14.56 0.999947 21.04 0.999947C27.52 0.999947 32.48 2.83995 35.92 6.51995C39.36 10.1999 41.08 15.3999 41.08 22.1199V66.28C41.08 73 39.36 78.2 35.92 81.88C32.48 85.56 27.52 87.4 21.04 87.4ZM21.04 75.4C25.6 75.4 27.88 72.64 27.88 67.12V21.28C27.88 15.7599 25.6 12.9999 21.04 12.9999C16.48 12.9999 14.2 15.7599 14.2 21.28V67.12C14.2 72.64 16.48 75.4 21.04 75.4ZM68.7269 87.4C62.2469 87.4 57.3269 85.6 53.9669 82C50.6869 78.4 49.0469 73.24 49.0469 66.52V59.6799H61.5269V67.12C61.5269 72.64 63.8069 75.4 68.3669 75.4C70.6069 75.4 72.2869 74.72 73.4069 73.36C74.6069 71.92 75.2069 69.44 75.2069 65.9199V59.0799C75.2069 55.2399 74.5269 52.5199 73.1669 50.92C71.8069 49.2399 69.6069 48.3999 66.5669 48.3999H62.1269V36.3999H66.9269C69.5669 36.3999 71.5269 35.7199 72.8069 34.3599C74.1669 32.9999 74.8469 30.7199 74.8469 27.5199V21.3999C74.8469 18.5199 74.2469 16.3999 73.0469 15.0399C71.8469 13.6799 70.2469 12.9999 68.2469 12.9999C64.0069 12.9999 61.8869 15.5999 61.8869 20.7999V26.3199H49.4069V21.8799C49.4069 15.16 51.0469 9.99995 54.3269 6.39995C57.6869 2.79995 62.4869 0.999947 68.7269 0.999947C75.0469 0.999947 79.8469 2.79995 83.1269 6.39995C86.4069 9.91995 88.0469 15.0399 88.0469 21.76V24.7599C88.0469 29.3199 87.2869 32.9999 85.7669 35.7999C84.2469 38.5199 81.8869 40.4799 78.6869 41.6799V41.9199C82.1269 43.1999 84.6069 45.2799 86.1269 48.16C87.6469 51.0399 88.4069 54.7199 88.4069 59.2V66.64C88.4069 73.36 86.7269 78.52 83.3669 82.12C80.0869 85.64 75.2069 87.4 68.7269 87.4Z"/>
</mask>
<path d="M21.04 87.4C14.56 87.4 9.59998 85.56 6.15998 81.88C2.71998 78.2 0.999978 73 0.999978 66.28V22.1199C0.999978 15.3999 2.71998 10.1999 6.15998 6.51995C9.59998 2.83995 14.56 0.999947 21.04 0.999947C27.52 0.999947 32.48 2.83995 35.92 6.51995C39.36 10.1999 41.08 15.3999 41.08 22.1199V66.28C41.08 73 39.36 78.2 35.92 81.88C32.48 85.56 27.52 87.4 21.04 87.4ZM21.04 75.4C25.6 75.4 27.88 72.64 27.88 67.12V21.28C27.88 15.7599 25.6 12.9999 21.04 12.9999C16.48 12.9999 14.2 15.7599 14.2 21.28V67.12C14.2 72.64 16.48 75.4 21.04 75.4ZM68.7269 87.4C62.2469 87.4 57.3269 85.6 53.9669 82C50.6869 78.4 49.0469 73.24 49.0469 66.52V59.6799H61.5269V67.12C61.5269 72.64 63.8069 75.4 68.3669 75.4C70.6069 75.4 72.2869 74.72 73.4069 73.36C74.6069 71.92 75.2069 69.44 75.2069 65.9199V59.0799C75.2069 55.2399 74.5269 52.5199 73.1669 50.92C71.8069 49.2399 69.6069 48.3999 66.5669 48.3999H62.1269V36.3999H66.9269C69.5669 36.3999 71.5269 35.7199 72.8069 34.3599C74.1669 32.9999 74.8469 30.7199 74.8469 27.5199V21.3999C74.8469 18.5199 74.2469 16.3999 73.0469 15.0399C71.8469 13.6799 70.2469 12.9999 68.2469 12.9999C64.0069 12.9999 61.8869 15.5999 61.8869 20.7999V26.3199H49.4069V21.8799C49.4069 15.16 51.0469 9.99995 54.3269 6.39995C57.6869 2.79995 62.4869 0.999947 68.7269 0.999947C75.0469 0.999947 79.8469 2.79995 83.1269 6.39995C86.4069 9.91995 88.0469 15.0399 88.0469 21.76V24.7599C88.0469 29.3199 87.2869 32.9999 85.7669 35.7999C84.2469 38.5199 81.8869 40.4799 78.6869 41.6799V41.9199C82.1269 43.1999 84.6069 45.2799 86.1269 48.16C87.6469 51.0399 88.4069 54.7199 88.4069 59.2V66.64C88.4069 73.36 86.7269 78.52 83.3669 82.12C80.0869 85.64 75.2069 87.4 68.7269 87.4Z" fill="white" fill-opacity="0.11"/>
<path d="M6.15998 81.88L6.89051 81.1971V81.1971L6.15998 81.88ZM6.15998 6.51994L6.89051 7.20283V7.20283L6.15998 6.51994ZM35.92 6.51994L35.1894 7.20283H35.1895L35.92 6.51994ZM35.92 81.88L35.1895 81.1971H35.1894L35.92 81.88ZM21.04 87.3999V86.3999C14.753 86.3999 10.0909 84.6207 6.89051 81.1971L6.15998 81.88L5.42945 82.5628C9.10907 86.4992 14.3669 88.3999 21.04 88.3999V87.3999ZM6.15998 81.88L6.89051 81.1971C3.6749 77.7571 1.99998 72.833 1.99998 66.28H0.999978H-2.19345e-05C-2.19345e-05 73.1669 1.76506 78.6428 5.42945 82.5628L6.15998 81.88ZM0.999978 66.28H1.99998V22.1199H0.999978H-2.19345e-05V66.28H0.999978ZM0.999978 22.1199H1.99998C1.99998 15.5669 3.6749 10.6428 6.89051 7.20283L6.15998 6.51994L5.42945 5.83707C1.76506 9.75711 -2.19345e-05 15.233 -2.19345e-05 22.1199H0.999978ZM6.15998 6.51994L6.89051 7.20283C10.0909 3.77916 14.753 1.99995 21.04 1.99995V0.999947V-5.34058e-05C14.3669 -5.34058e-05 9.10907 1.90073 5.42945 5.83707L6.15998 6.51994ZM21.04 0.999947V1.99995C27.3269 1.99995 31.9891 3.77916 35.1894 7.20283L35.92 6.51994L36.6505 5.83707C32.9709 1.90073 27.713 -5.34058e-05 21.04 -5.34058e-05V0.999947ZM35.92 6.51994L35.1895 7.20283C38.4051 10.6428 40.08 15.5669 40.08 22.1199H41.08H42.08C42.08 15.233 40.3149 9.75711 36.6505 5.83707L35.92 6.51994ZM41.08 22.1199H40.08V66.28H41.08H42.08V22.1199H41.08ZM41.08 66.28H40.08C40.08 72.833 38.4051 77.7571 35.1895 81.1971L35.92 81.88L36.6505 82.5628C40.3149 78.6428 42.08 73.1669 42.08 66.28H41.08ZM35.92 81.88L35.1894 81.1971C31.9891 84.6207 27.3269 86.3999 21.04 86.3999V87.3999V88.3999C27.713 88.3999 32.9709 86.4992 36.6505 82.5628L35.92 81.88ZM21.04 75.3999V76.3999C23.5298 76.3999 25.561 75.6373 26.9409 73.9668C28.2906 72.333 28.88 69.9926 28.88 67.1199H27.88H26.88C26.88 69.7673 26.3293 71.5669 25.399 72.6931C24.4989 73.7826 23.1102 74.3999 21.04 74.3999V75.3999ZM27.88 67.1199H28.88V21.28H27.88H26.88V67.1199H27.88ZM27.88 21.28H28.88C28.88 18.4073 28.2906 16.0669 26.9409 14.4331C25.561 12.7626 23.5298 11.9999 21.04 11.9999V12.9999V13.9999C23.1102 13.9999 24.4989 14.6173 25.399 15.7068C26.3293 16.833 26.88 18.6326 26.88 21.28H27.88ZM21.04 12.9999V11.9999C18.5502 11.9999 16.5189 12.7626 15.139 14.4331C13.7893 16.0669 13.2 18.4073 13.2 21.28H14.2H15.2C15.2 18.6326 15.7506 16.833 16.6809 15.7068C17.581 14.6173 18.9698 13.9999 21.04 13.9999V12.9999ZM14.2 21.28H13.2V67.1199H14.2H15.2V21.28H14.2ZM14.2 67.1199H13.2C13.2 69.9926 13.7893 72.333 15.139 73.9668C16.5189 75.6373 18.5502 76.3999 21.04 76.3999V75.3999V74.3999C18.9698 74.3999 17.581 73.7826 16.6809 72.6931C15.7506 71.5669 15.2 69.7673 15.2 67.1199H14.2ZM53.9669 82L53.2276 82.6735L53.2358 82.6823L53.9669 82ZM49.0469 59.6799V58.6799H48.0469V59.6799H49.0469ZM61.5269 59.6799H62.5269V58.6799H61.5269V59.6799ZM73.4069 73.3599L72.6386 72.7198L72.6349 72.7242L73.4069 73.3599ZM73.1669 50.92L72.3896 51.5491L72.3972 51.5585L72.4049 51.5676L73.1669 50.92ZM62.1269 48.3999H61.1269V49.3999H62.1269V48.3999ZM62.1269 36.3999V35.3999H61.1269V36.3999H62.1269ZM72.8069 34.36L72.0997 33.6528L72.089 33.6636L72.0787 33.6746L72.8069 34.36ZM73.0469 15.0399L73.7967 14.3783V14.3783L73.0469 15.0399ZM61.8869 26.32V27.32H62.8869V26.32H61.8869ZM49.4069 26.32H48.4069V27.32H49.4069V26.32ZM54.3269 6.39995L53.5957 5.71758L53.5877 5.72646L54.3269 6.39995ZM83.1269 6.39995L82.3876 7.07348L82.3952 7.08167L83.1269 6.39995ZM85.7669 35.7999L86.6399 36.2878L86.6457 36.277L85.7669 35.7999ZM78.6869 41.6799L78.3357 40.7436L77.6869 40.9869V41.6799H78.6869ZM78.6869 41.9199H77.6869V42.6148L78.3381 42.8572L78.6869 41.9199ZM86.1269 48.16L85.2425 48.6267V48.6267L86.1269 48.16ZM83.3669 82.1199L82.6358 81.4376L82.6352 81.4382L83.3669 82.1199ZM68.7269 87.3999V86.3999C62.4322 86.3999 57.8141 84.6564 54.6979 81.3176L53.9669 82L53.2358 82.6823C56.8396 86.5435 62.0616 88.3999 68.7269 88.3999V87.3999ZM53.9669 82L54.7061 81.3265C51.6485 77.9706 50.0469 73.086 50.0469 66.52H49.0469H48.0469C48.0469 73.3939 49.7252 78.8293 53.2277 82.6734L53.9669 82ZM49.0469 66.52H50.0469V59.6799H49.0469H48.0469V66.52H49.0469ZM49.0469 59.6799V60.6799H61.5269V59.6799V58.6799H49.0469V59.6799ZM61.5269 59.6799H60.5269V67.1199H61.5269H62.5269V59.6799H61.5269ZM61.5269 67.1199H60.5269C60.5269 69.9926 61.1162 72.333 62.4659 73.9668C63.8458 75.6373 65.877 76.3999 68.3669 76.3999V75.3999V74.3999C66.2967 74.3999 64.9079 73.7826 64.0078 72.6931C63.0775 71.5669 62.5269 69.7673 62.5269 67.1199H61.5269ZM68.3669 75.3999V76.3999C70.8177 76.3999 72.8192 75.6466 74.1788 73.9957L73.4069 73.3599L72.6349 72.7242C71.7545 73.7933 70.396 74.3999 68.3669 74.3999V75.3999ZM73.4069 73.3599L74.1751 74.0001C75.6093 72.279 76.2069 69.4946 76.2069 65.92H75.2069H74.2069C74.2069 69.3853 73.6044 71.5609 72.6386 72.7198L73.4069 73.3599ZM75.2069 65.92H76.2069V59.0799H75.2069H74.2069V65.92H75.2069ZM75.2069 59.0799H76.2069C76.2069 55.177 75.5266 52.1521 73.9288 50.2723L73.1669 50.92L72.4049 51.5676C73.5271 52.8878 74.2069 55.3029 74.2069 59.0799H75.2069ZM73.1669 50.92L73.9441 50.2908C72.3259 48.2918 69.78 47.3999 66.5669 47.3999V48.3999V49.3999C69.4337 49.3999 71.2878 50.1881 72.3896 51.5491L73.1669 50.92ZM66.5669 48.3999V47.3999H62.1269V48.3999V49.3999H66.5669V48.3999ZM62.1269 48.3999H63.1269V36.3999H62.1269H61.1269V48.3999H62.1269ZM62.1269 36.3999V37.3999H66.9269V36.3999V35.3999H62.1269V36.3999ZM66.9269 36.3999V37.3999C69.7262 37.3999 71.9989 36.6775 73.535 35.0453L72.8069 34.36L72.0787 33.6746C71.0548 34.7624 69.4075 35.3999 66.9269 35.3999V36.3999ZM72.8069 34.36L73.514 35.0671C75.1533 33.4278 75.8469 30.8186 75.8469 27.5199H74.8469H73.8469C73.8469 30.6213 73.1805 32.5721 72.0997 33.6528L72.8069 34.36ZM74.8469 27.5199H75.8469V21.3999H74.8469H73.8469V27.5199H74.8469ZM74.8469 21.3999H75.8469C75.8469 18.4121 75.2295 16.0021 73.7967 14.3783L73.0469 15.0399L72.297 15.7016C73.2643 16.7978 73.8469 18.6278 73.8469 21.3999H74.8469ZM73.0469 15.0399L73.7967 14.3783C72.3861 12.7796 70.5007 11.9999 68.2469 11.9999V12.9999V13.9999C69.993 13.9999 71.3077 14.5803 72.297 15.7016L73.0469 15.0399ZM68.2469 12.9999V11.9999C65.9127 11.9999 64.0003 12.7256 62.7018 14.318C61.4352 15.8714 60.8869 18.0897 60.8869 20.7999H61.8869H62.8869C62.8869 18.3102 63.3985 16.6285 64.2519 15.5819C65.0734 14.5743 66.341 13.9999 68.2469 13.9999V12.9999ZM61.8869 20.7999H60.8869V26.32H61.8869H62.8869V20.7999H61.8869ZM61.8869 26.32V25.32H49.4069V26.32V27.32H61.8869V26.32ZM49.4069 26.32H50.4069V21.88H49.4069H48.4069V26.32H49.4069ZM49.4069 21.88H50.4069C50.4069 15.3139 52.0085 10.4293 55.0661 7.07344L54.3269 6.39995L53.5877 5.72646C50.0852 9.57063 48.4069 15.006 48.4069 21.88H49.4069ZM54.3269 6.39995L55.0579 7.08227C58.181 3.73605 62.6853 1.99995 68.7269 1.99995V0.999947V-5.34058e-05C62.2884 -5.34058e-05 57.1927 1.86385 53.5958 5.71763L54.3269 6.39995ZM68.7269 0.999947V1.99995C74.8542 1.99995 79.3496 3.739 82.3877 7.07344L83.1269 6.39995L83.8661 5.72646C80.3441 1.8609 75.2395 -5.34058e-05 68.7269 -5.34058e-05V0.999947ZM83.1269 6.39995L82.3952 7.08167C85.4445 10.354 87.0469 15.1921 87.0469 21.7599H88.0469H89.0469C89.0469 14.8878 87.3692 9.48586 83.8585 5.71822L83.1269 6.39995ZM88.0469 21.7599H87.0469V24.7599H88.0469H89.0469V21.7599H88.0469ZM88.0469 24.7599H87.0469C87.0469 29.2207 86.3016 32.7189 84.888 35.3229L85.7669 35.7999L86.6457 36.277C88.2721 33.281 89.0469 29.4192 89.0469 24.7599H88.0469ZM85.7669 35.7999L84.8939 35.3121C83.5008 37.8051 81.3372 39.6181 78.3357 40.7436L78.6869 41.6799L79.038 42.6163C82.4365 41.3418 84.9929 39.2348 86.6398 36.2878L85.7669 35.7999ZM78.6869 41.6799H77.6869V41.9199H78.6869H79.6869V41.6799H78.6869ZM78.6869 41.9199L78.3381 42.8572C81.5792 44.0632 83.8519 45.9919 85.2425 48.6267L86.1269 48.16L87.0112 47.6932C85.3618 44.568 82.6745 42.3367 79.0356 40.9827L78.6869 41.9199ZM86.1269 48.16L85.2425 48.6267C86.6634 51.319 87.4069 54.8246 87.4069 59.2H88.4069H89.4069C89.4069 54.6153 88.6303 50.7608 87.0112 47.6932L86.1269 48.16ZM88.4069 59.2H87.4069V66.64H88.4069H89.4069V59.2H88.4069ZM88.4069 66.64H87.4069C87.4069 73.2003 85.7682 78.0815 82.6358 81.4376L83.3669 82.1199L84.0979 82.8023C87.6855 78.9584 89.4069 73.5196 89.4069 66.64H88.4069ZM83.3669 82.1199L82.6352 81.4382C79.6033 84.692 75.0296 86.3999 68.7269 86.3999V87.3999V88.3999C75.3841 88.3999 80.5704 86.5879 84.0985 82.8017L83.3669 82.1199Z" fill="white" fill-opacity="0.2" mask="url(#path-1-outside-1_6278_1939)"/>
</svg>
