<svg width="150" height="95" viewBox="0 0 150 95" fill="none" xmlns="http://www.w3.org/2000/svg">
<mask id="path-1-outside-1_6278_2080" maskUnits="userSpaceOnUse" x="-0.973999" y="-0.120117" width="151" height="95" fill="black">
<rect fill="white" x="-0.973999" y="-0.120117" width="151" height="95"/>
<path d="M21.992 93.1599C15.08 93.1599 9.832 91.2399 6.248 87.3999C2.74933 83.5599 1 78.0559 1 70.8879V63.5919H14.312V71.5279C14.312 77.4159 16.744 80.3599 21.608 80.3599C23.9973 80.3599 25.7893 79.6345 26.984 78.1839C28.264 76.6479 28.904 74.0025 28.904 70.2479V62.9519C28.904 58.8559 28.1787 55.9545 26.728 54.2479C25.2773 52.4559 22.9307 51.5599 19.688 51.5599H14.952V38.7599H20.072C22.888 38.7599 24.9787 38.0345 26.344 36.5839C27.7947 35.1332 28.52 32.7012 28.52 29.2879V22.7599C28.52 19.6879 27.88 17.4265 26.6 15.9759C25.32 14.5252 23.6133 13.7999 21.48 13.7999C16.9573 13.7999 14.696 16.5732 14.696 22.1199V28.0079H1.384V23.2719C1.384 16.1039 3.13333 10.5999 6.632 6.75988C10.216 2.91988 15.336 0.999878 21.992 0.999878C28.7333 0.999878 33.8533 2.91988 37.352 6.75988C40.8507 10.5145 42.6 15.9759 42.6 23.1439V26.3439C42.6 31.2079 41.7893 35.1332 40.168 38.1199C38.5467 41.0212 36.0293 43.1119 32.616 44.3919V44.6479C36.2853 46.0132 38.9307 48.2319 40.552 51.3039C42.1733 54.3759 42.984 58.3012 42.984 63.0799V71.0159C42.984 78.1839 41.192 83.6879 37.608 87.5279C34.1093 91.2825 28.904 93.1599 21.992 93.1599ZM53.274 2.27988H67.354V40.0399L85.274 2.27988H99.354L82.586 35.1759L99.61 91.8799H84.89L72.986 51.9439L67.354 63.3359V91.8799H53.274V2.27988ZM121.634 52.0719H104.482V42.0879H121.634V24.8079H131.618V42.0879H148.77V52.0719H131.618V69.6079H121.634V52.0719Z"/>
</mask>
<path d="M21.992 93.1599C15.08 93.1599 9.832 91.2399 6.248 87.3999C2.74933 83.5599 1 78.0559 1 70.8879V63.5919H14.312V71.5279C14.312 77.4159 16.744 80.3599 21.608 80.3599C23.9973 80.3599 25.7893 79.6345 26.984 78.1839C28.264 76.6479 28.904 74.0025 28.904 70.2479V62.9519C28.904 58.8559 28.1787 55.9545 26.728 54.2479C25.2773 52.4559 22.9307 51.5599 19.688 51.5599H14.952V38.7599H20.072C22.888 38.7599 24.9787 38.0345 26.344 36.5839C27.7947 35.1332 28.52 32.7012 28.52 29.2879V22.7599C28.52 19.6879 27.88 17.4265 26.6 15.9759C25.32 14.5252 23.6133 13.7999 21.48 13.7999C16.9573 13.7999 14.696 16.5732 14.696 22.1199V28.0079H1.384V23.2719C1.384 16.1039 3.13333 10.5999 6.632 6.75988C10.216 2.91988 15.336 0.999878 21.992 0.999878C28.7333 0.999878 33.8533 2.91988 37.352 6.75988C40.8507 10.5145 42.6 15.9759 42.6 23.1439V26.3439C42.6 31.2079 41.7893 35.1332 40.168 38.1199C38.5467 41.0212 36.0293 43.1119 32.616 44.3919V44.6479C36.2853 46.0132 38.9307 48.2319 40.552 51.3039C42.1733 54.3759 42.984 58.3012 42.984 63.0799V71.0159C42.984 78.1839 41.192 83.6879 37.608 87.5279C34.1093 91.2825 28.904 93.1599 21.992 93.1599ZM53.274 2.27988H67.354V40.0399L85.274 2.27988H99.354L82.586 35.1759L99.61 91.8799H84.89L72.986 51.9439L67.354 63.3359V91.8799H53.274V2.27988ZM121.634 52.0719H104.482V42.0879H121.634V24.8079H131.618V42.0879H148.77V52.0719H131.618V69.6079H121.634V52.0719Z" fill="white" fill-opacity="0.11"/>
<path d="M6.248 87.3999L5.50875 88.0734L5.51694 88.0822L6.248 87.3999ZM1 63.5919V62.5919H0V63.5919H1ZM14.312 63.5919H15.312V62.5919H14.312V63.5919ZM26.984 78.1839L26.2158 77.5437L26.2121 77.5482L26.984 78.1839ZM26.728 54.2479L25.9508 54.8771L25.9583 54.8864L25.9661 54.8955L26.728 54.2479ZM14.952 51.5599H13.952V52.5599H14.952V51.5599ZM14.952 38.7599V37.7599H13.952V38.7599H14.952ZM26.344 36.5839L25.6369 35.8768L25.6262 35.8875L25.6158 35.8985L26.344 36.5839ZM26.6 15.9759L27.3498 15.3143V15.3143L26.6 15.9759ZM14.696 28.0079V29.0079H15.696V28.0079H14.696ZM1.384 28.0079H0.384003V29.0079H1.384V28.0079ZM6.632 6.75988L5.90089 6.07751L5.89281 6.08639L6.632 6.75988ZM37.352 6.75988L36.6128 7.43341L36.6204 7.4416L37.352 6.75988ZM40.168 38.1199L41.041 38.6077L41.0469 38.597L40.168 38.1199ZM32.616 44.3919L32.2649 43.4556L31.616 43.6989V44.3919H32.616ZM32.616 44.6479H31.616V45.3428L32.2673 45.5851L32.616 44.6479ZM40.552 51.3039L39.6676 51.7706V51.7706L40.552 51.3039ZM37.608 87.5279L36.8769 86.8456L36.8764 86.8462L37.608 87.5279ZM21.992 93.1599V92.1599C15.2653 92.1599 10.3192 90.2963 6.97906 86.7176L6.248 87.3999L5.51694 88.0822C9.34476 92.1834 14.8947 94.1599 21.992 94.1599V93.1599ZM6.248 87.3999L6.9872 86.7264C3.711 83.1306 2 77.902 2 70.8879H1H0C0 78.2098 1.78767 83.9892 5.5088 88.0734L6.248 87.3999ZM1 70.8879H2V63.5919H1H0V70.8879H1ZM1 63.5919V64.5919H14.312V63.5919V62.5919H1V63.5919ZM14.312 63.5919H13.312V71.5279H14.312H15.312V63.5919H14.312ZM14.312 71.5279H13.312C13.312 74.5845 13.9393 77.0629 15.365 78.7888C16.821 80.5512 18.9662 81.3599 21.608 81.3599V80.3599V79.3599C19.3858 79.3599 17.883 78.6966 16.907 77.515C15.9007 76.2968 15.312 74.3593 15.312 71.5279H14.312ZM21.608 80.3599V81.3599C24.2082 81.3599 26.3217 80.5612 27.7559 78.8196L26.984 78.1839L26.2121 77.5482C25.257 78.7079 23.7865 79.3599 21.608 79.3599V80.3599ZM26.984 78.1839L27.7522 78.8241C29.2665 77.007 29.904 74.0572 29.904 70.2479H28.904H27.904C27.904 73.9479 27.2615 76.2888 26.2158 77.5437L26.984 78.1839ZM28.904 70.2479H29.904V62.9519H28.904H27.904V70.2479H28.904ZM28.904 62.9519H29.904C29.904 58.7929 29.1784 55.5867 27.4899 53.6002L26.728 54.2479L25.9661 54.8955C27.1789 56.3224 27.904 58.9189 27.904 62.9519H28.904ZM26.728 54.2479L27.5052 53.6187C25.7964 51.5077 23.1038 50.5599 19.688 50.5599V51.5599V52.5599C22.7576 52.5599 24.7583 53.4041 25.9508 54.8771L26.728 54.2479ZM19.688 51.5599V50.5599H14.952V51.5599V52.5599H19.688V51.5599ZM14.952 51.5599H15.952V38.7599H14.952H13.952V51.5599H14.952ZM14.952 38.7599V39.7599H20.072V38.7599V37.7599H14.952V38.7599ZM20.072 38.7599V39.7599C23.0473 39.7599 25.4507 38.9921 27.0722 37.2692L26.344 36.5839L25.6158 35.8985C24.5067 37.077 22.7287 37.7599 20.072 37.7599V38.7599ZM26.344 36.5839L27.0511 37.291C28.7811 35.561 29.52 32.7998 29.52 29.2879H28.52H27.52C27.52 32.6026 26.8083 34.7054 25.6369 35.8768L26.344 36.5839ZM28.52 29.2879H29.52V22.7599H28.52H27.52V29.2879H28.52ZM28.52 22.7599H29.52C29.52 19.58 28.8626 17.0287 27.3498 15.3143L26.6 15.9759L25.8502 16.6375C26.8974 17.8244 27.52 19.7957 27.52 22.7599H28.52ZM26.6 15.9759L27.3498 15.3143C25.8592 13.6249 23.8672 12.7999 21.48 12.7999V13.7999V14.7999C23.3594 14.7999 24.7808 15.4256 25.8502 16.6375L26.6 15.9759ZM21.48 13.7999V12.7999C19.0045 12.7999 16.9861 13.5688 15.617 15.2479C14.2797 16.888 13.696 19.2363 13.696 22.1199H14.696H15.696C15.696 19.4568 16.243 17.6451 17.167 16.5118C18.0592 15.4176 19.4329 14.7999 21.48 14.7999V13.7999ZM14.696 22.1199H13.696V28.0079H14.696H15.696V22.1199H14.696ZM14.696 28.0079V27.0079H1.384V28.0079V29.0079H14.696V28.0079ZM1.384 28.0079H2.384V23.2719H1.384H0.384003V28.0079H1.384ZM1.384 23.2719H2.384C2.384 16.2578 4.09499 11.0292 7.3712 7.43337L6.632 6.75988L5.89281 6.08639C2.17168 10.1706 0.384003 15.95 0.384003 23.2719H1.384ZM6.632 6.75988L7.36306 7.4422C10.7102 3.85598 15.5345 1.99988 21.992 1.99988V0.999878V-0.00012207C15.1375 -0.00012207 9.72182 1.98377 5.90095 6.07756L6.632 6.75988ZM21.992 0.999878V1.99988C28.5406 1.99988 33.3561 3.85892 36.6128 7.43337L37.352 6.75988L38.0912 6.08639C34.3506 1.98083 28.926 -0.00012207 21.992 -0.00012207V0.999878ZM37.352 6.75988L36.6204 7.4416C39.8883 10.9486 41.6 16.128 41.6 23.1439H42.6H43.6C43.6 15.8238 41.813 10.0805 38.0836 6.07816L37.352 6.75988ZM42.6 23.1439H41.6V26.3439H42.6H43.6V23.1439H42.6ZM42.6 26.3439H41.6C41.6 31.1086 40.8041 34.8522 39.2892 37.6428L40.168 38.1199L41.0469 38.597C42.7746 35.4143 43.6 31.3071 43.6 26.3439H42.6ZM40.168 38.1199L39.2951 37.6321C37.8006 40.3064 35.4797 42.25 32.2649 43.4556L32.616 44.3919L32.9671 45.3282C36.579 43.9738 39.2928 41.736 41.041 38.6077L40.168 38.1199ZM32.616 44.3919H31.616V44.6479H32.616H33.616V44.3919H32.616ZM32.616 44.6479L32.2673 45.5851C35.7377 46.8764 38.1757 48.9438 39.6676 51.7706L40.552 51.3039L41.4364 50.8371C39.6856 47.5199 36.833 45.15 32.9647 43.7107L32.616 44.6479ZM40.552 51.3039L39.6676 51.7706C41.1899 54.655 41.984 58.4059 41.984 63.0799H42.984H43.984C43.984 58.1966 43.1568 54.0968 41.4364 50.8371L40.552 51.3039ZM42.984 63.0799H41.984V71.0159H42.984H43.984V63.0799H42.984ZM42.984 71.0159H41.984C41.984 78.0242 40.2334 83.2494 36.8769 86.8456L37.608 87.5279L38.3391 88.2102C42.1506 84.1264 43.984 78.3435 43.984 71.0159H42.984ZM37.608 87.5279L36.8764 86.8462C33.6258 90.3346 28.7267 92.1599 21.992 92.1599V93.1599V94.1599C29.0813 94.1599 34.5929 92.2305 38.3396 88.2096L37.608 87.5279ZM53.274 2.27988V1.27988H52.274V2.27988H53.274ZM67.354 2.27988H68.354V1.27988H67.354V2.27988ZM67.354 40.0399H66.354L68.2574 40.4686L67.354 40.0399ZM85.274 2.27988V1.27988H84.6417L84.3706 1.85114L85.274 2.27988ZM99.354 2.27988L100.245 2.73401L100.986 1.27988H99.354V2.27988ZM82.586 35.1759L81.6951 34.7217L81.5129 35.0792L81.6282 35.4634L82.586 35.1759ZM99.61 91.8799V92.8799H100.954L100.568 91.5923L99.61 91.8799ZM84.89 91.8799L83.9317 92.1655L84.1446 92.8799H84.89V91.8799ZM72.986 51.9439L73.9443 51.6582L73.2174 49.2194L72.0896 51.5007L72.986 51.9439ZM67.354 63.3359L66.4576 62.8927L66.354 63.1022V63.3359H67.354ZM67.354 91.8799V92.8799H68.354V91.8799H67.354ZM53.274 91.8799H52.274V92.8799H53.274V91.8799ZM53.274 2.27988V3.27988H67.354V2.27988V1.27988H53.274V2.27988ZM67.354 2.27988H66.354V40.0399H67.354H68.354V2.27988H67.354ZM67.354 40.0399L68.2574 40.4686L86.1774 2.70862L85.274 2.27988L84.3706 1.85114L66.4506 39.6111L67.354 40.0399ZM85.274 2.27988V3.27988H99.354V2.27988V1.27988H85.274V2.27988ZM99.354 2.27988L98.4631 1.82574L81.6951 34.7217L82.586 35.1759L83.4769 35.63L100.245 2.73401L99.354 2.27988ZM82.586 35.1759L81.6282 35.4634L98.6522 92.1674L99.61 91.8799L100.568 91.5923L83.5438 34.8883L82.586 35.1759ZM99.61 91.8799V90.8799H84.89V91.8799V92.8799H99.61V91.8799ZM84.89 91.8799L85.8483 91.5942L73.9443 51.6582L72.986 51.9439L72.0277 52.2295L83.9317 92.1655L84.89 91.8799ZM72.986 51.9439L72.0896 51.5007L66.4576 62.8927L67.354 63.3359L68.2504 63.7791L73.8824 52.3871L72.986 51.9439ZM67.354 63.3359H66.354V91.8799H67.354H68.354V63.3359H67.354ZM67.354 91.8799V90.8799H53.274V91.8799V92.8799H67.354V91.8799ZM53.274 91.8799H54.274V2.27988H53.274H52.274V91.8799H53.274ZM121.634 52.0719H122.634V51.0719H121.634V52.0719ZM104.482 52.0719H103.482V53.0719H104.482V52.0719ZM104.482 42.0879V41.0879H103.482V42.0879H104.482ZM121.634 42.0879V43.0879H122.634V42.0879H121.634ZM121.634 24.8079V23.8079H120.634V24.8079H121.634ZM131.618 24.8079H132.618V23.8079H131.618V24.8079ZM131.618 42.0879H130.618V43.0879H131.618V42.0879ZM148.77 42.0879H149.77V41.0879H148.77V42.0879ZM148.77 52.0719V53.0719H149.77V52.0719H148.77ZM131.618 52.0719V51.0719H130.618V52.0719H131.618ZM131.618 69.6079V70.6079H132.618V69.6079H131.618ZM121.634 69.6079H120.634V70.6079H121.634V69.6079ZM121.634 52.0719V51.0719H104.482V52.0719V53.0719H121.634V52.0719ZM104.482 52.0719H105.482V42.0879H104.482H103.482V52.0719H104.482ZM104.482 42.0879V43.0879H121.634V42.0879V41.0879H104.482V42.0879ZM121.634 42.0879H122.634V24.8079H121.634H120.634V42.0879H121.634ZM121.634 24.8079V25.8079H131.618V24.8079V23.8079H121.634V24.8079ZM131.618 24.8079H130.618V42.0879H131.618H132.618V24.8079H131.618ZM131.618 42.0879V43.0879H148.77V42.0879V41.0879H131.618V42.0879ZM148.77 42.0879H147.77V52.0719H148.77H149.77V42.0879H148.77ZM148.77 52.0719V51.0719H131.618V52.0719V53.0719H148.77V52.0719ZM131.618 52.0719H130.618V69.6079H131.618H132.618V52.0719H131.618ZM131.618 69.6079V68.6079H121.634V69.6079V70.6079H131.618V69.6079ZM121.634 69.6079H122.634V52.0719H121.634H120.634V69.6079H121.634Z" fill="white" fill-opacity="0.2" mask="url(#path-1-outside-1_6278_2080)"/>
</svg>
