<svg width="199" height="95" viewBox="0 0 199 95" fill="none" xmlns="http://www.w3.org/2000/svg">
<mask id="path-1-outside-1_6278_2076" maskUnits="userSpaceOnUse" x="-0.811523" y="-0.120117" width="200" height="95" fill="black">
<rect fill="white" x="-0.811523" y="-0.120117" width="200" height="95"/>
<path d="M22.0445 93.1599C15.2178 93.1599 10.0125 91.2399 6.42848 87.3999C2.84448 83.4745 1.05248 77.8852 1.05248 70.6319V63.5919H14.3645V71.6559C14.3645 77.4585 16.7965 80.3599 21.6605 80.3599C26.5245 80.3599 28.9565 77.4585 28.9565 71.6559V51.5599C28.9565 45.6719 26.5245 42.7279 21.6605 42.7279C16.7965 42.7279 14.3645 45.6719 14.3645 51.5599V52.3279H1.05248L3.61248 2.27988H40.7325V15.0799H16.1565L15.0045 36.4559H15.2605C17.9058 32.1039 21.9591 29.9279 27.4205 29.9279C32.5405 29.9279 36.4231 31.6772 39.0685 35.1759C41.7138 38.6745 43.0365 43.7519 43.0365 50.4079V70.6319C43.0365 77.8852 41.2445 83.4745 37.6605 87.3999C34.0765 91.2399 28.8711 93.1599 22.0445 93.1599ZM73.0385 93.1599C66.1265 93.1599 60.8358 91.1972 57.1665 87.2719C53.4971 83.3465 51.6625 77.7999 51.6625 70.6319V23.5279C51.6625 16.3599 53.4971 10.8132 57.1665 6.88788C60.8358 2.96254 66.1265 0.999878 73.0385 0.999878C79.9505 0.999878 85.2411 2.96254 88.9105 6.88788C92.5798 10.8132 94.4145 16.3599 94.4145 23.5279V70.6319C94.4145 77.7999 92.5798 83.3465 88.9105 87.2719C85.2411 91.1972 79.9505 93.1599 73.0385 93.1599ZM73.0385 80.3599C77.9025 80.3599 80.3345 77.4159 80.3345 71.5279V22.6319C80.3345 16.7439 77.9025 13.7999 73.0385 13.7999C68.1745 13.7999 65.7425 16.7439 65.7425 22.6319V71.5279C65.7425 77.4159 68.1745 80.3599 73.0385 80.3599ZM124.288 93.1599C117.376 93.1599 112.086 91.1972 108.416 87.2719C104.747 83.3465 102.912 77.7999 102.912 70.6319V23.5279C102.912 16.3599 104.747 10.8132 108.416 6.88788C112.086 2.96254 117.376 0.999878 124.288 0.999878C131.2 0.999878 136.491 2.96254 140.16 6.88788C143.83 10.8132 145.664 16.3599 145.664 23.5279V70.6319C145.664 77.7999 143.83 83.3465 140.16 87.2719C136.491 91.1972 131.2 93.1599 124.288 93.1599ZM124.288 80.3599C129.152 80.3599 131.584 77.4159 131.584 71.5279V22.6319C131.584 16.7439 129.152 13.7999 124.288 13.7999C119.424 13.7999 116.992 16.7439 116.992 22.6319V71.5279C116.992 77.4159 119.424 80.3599 124.288 80.3599ZM170.546 52.0719H153.394V42.0879H170.546V24.8079H180.53V42.0879H197.682V52.0719H180.53V69.6079H170.546V52.0719Z"/>
</mask>
<path d="M22.0445 93.1599C15.2178 93.1599 10.0125 91.2399 6.42848 87.3999C2.84448 83.4745 1.05248 77.8852 1.05248 70.6319V63.5919H14.3645V71.6559C14.3645 77.4585 16.7965 80.3599 21.6605 80.3599C26.5245 80.3599 28.9565 77.4585 28.9565 71.6559V51.5599C28.9565 45.6719 26.5245 42.7279 21.6605 42.7279C16.7965 42.7279 14.3645 45.6719 14.3645 51.5599V52.3279H1.05248L3.61248 2.27988H40.7325V15.0799H16.1565L15.0045 36.4559H15.2605C17.9058 32.1039 21.9591 29.9279 27.4205 29.9279C32.5405 29.9279 36.4231 31.6772 39.0685 35.1759C41.7138 38.6745 43.0365 43.7519 43.0365 50.4079V70.6319C43.0365 77.8852 41.2445 83.4745 37.6605 87.3999C34.0765 91.2399 28.8711 93.1599 22.0445 93.1599ZM73.0385 93.1599C66.1265 93.1599 60.8358 91.1972 57.1665 87.2719C53.4971 83.3465 51.6625 77.7999 51.6625 70.6319V23.5279C51.6625 16.3599 53.4971 10.8132 57.1665 6.88788C60.8358 2.96254 66.1265 0.999878 73.0385 0.999878C79.9505 0.999878 85.2411 2.96254 88.9105 6.88788C92.5798 10.8132 94.4145 16.3599 94.4145 23.5279V70.6319C94.4145 77.7999 92.5798 83.3465 88.9105 87.2719C85.2411 91.1972 79.9505 93.1599 73.0385 93.1599ZM73.0385 80.3599C77.9025 80.3599 80.3345 77.4159 80.3345 71.5279V22.6319C80.3345 16.7439 77.9025 13.7999 73.0385 13.7999C68.1745 13.7999 65.7425 16.7439 65.7425 22.6319V71.5279C65.7425 77.4159 68.1745 80.3599 73.0385 80.3599ZM124.288 93.1599C117.376 93.1599 112.086 91.1972 108.416 87.2719C104.747 83.3465 102.912 77.7999 102.912 70.6319V23.5279C102.912 16.3599 104.747 10.8132 108.416 6.88788C112.086 2.96254 117.376 0.999878 124.288 0.999878C131.2 0.999878 136.491 2.96254 140.16 6.88788C143.83 10.8132 145.664 16.3599 145.664 23.5279V70.6319C145.664 77.7999 143.83 83.3465 140.16 87.2719C136.491 91.1972 131.2 93.1599 124.288 93.1599ZM124.288 80.3599C129.152 80.3599 131.584 77.4159 131.584 71.5279V22.6319C131.584 16.7439 129.152 13.7999 124.288 13.7999C119.424 13.7999 116.992 16.7439 116.992 22.6319V71.5279C116.992 77.4159 119.424 80.3599 124.288 80.3599ZM170.546 52.0719H153.394V42.0879H170.546V24.8079H180.53V42.0879H197.682V52.0719H180.53V69.6079H170.546V52.0719Z" fill="white" fill-opacity="0.11"/>
<path d="M6.42847 87.3999L5.68995 88.0742L5.69742 88.0822L6.42847 87.3999ZM1.05247 63.5919V62.5919H0.052475V63.5919H1.05247ZM14.3645 63.5919H15.3645V62.5919H14.3645V63.5919ZM14.3645 52.3279V53.3279H15.3645V52.3279H14.3645ZM1.05247 52.3279L0.0537834 52.2768L1.90735e-05 53.3279H1.05247V52.3279ZM3.61248 2.27988V1.27988H2.66232L2.61378 2.22879L3.61248 2.27988ZM40.7325 2.27988H41.7325V1.27988H40.7325V2.27988ZM40.7325 15.0799V16.0799H41.7325V15.0799H40.7325ZM16.1565 15.0799V14.0799H15.2089L15.1579 15.0261L16.1565 15.0799ZM15.0045 36.4559L14.0059 36.4021L13.9491 37.4559H15.0045V36.4559ZM15.2605 36.4559V37.4559H15.8229L16.115 36.9753L15.2605 36.4559ZM39.0685 35.1759L38.2708 35.779V35.779L39.0685 35.1759ZM37.6605 87.3999L38.3916 88.0822L38.399 88.0742L37.6605 87.3999ZM22.0445 93.1599V92.1599C15.4075 92.1599 10.502 90.2988 7.15953 86.7176L6.42847 87.3999L5.69742 88.0822C9.52298 92.181 15.0282 94.1599 22.0445 94.1599V93.1599ZM6.42847 87.3999L7.16696 86.7256C3.80433 83.0427 2.05247 77.7277 2.05247 70.6319H1.05247H0.052475C0.052475 78.0428 1.88463 83.9064 5.68999 88.0742L6.42847 87.3999ZM1.05247 70.6319H2.05247V63.5919H1.05247H0.052475V70.6319H1.05247ZM1.05247 63.5919V64.5919H14.3645V63.5919V62.5919H1.05247V63.5919ZM14.3645 63.5919H13.3645V71.6559H14.3645H15.3645V63.5919H14.3645ZM14.3645 71.6559H13.3645C13.3645 74.6726 13.993 77.1213 15.4221 78.8263C16.8796 80.565 19.0235 81.3599 21.6605 81.3599V80.3599V79.3599C19.4335 79.3599 17.9294 78.7041 16.9548 77.5415C15.952 76.3451 15.3645 74.4419 15.3645 71.6559H14.3645ZM21.6605 80.3599V81.3599C24.2975 81.3599 26.4414 80.565 27.8988 78.8263C29.328 77.1213 29.9565 74.6726 29.9565 71.6559H28.9565H27.9565C27.9565 74.4419 27.369 76.3451 26.3661 77.5415C25.3916 78.7041 23.8875 79.3599 21.6605 79.3599V80.3599ZM28.9565 71.6559H29.9565V51.5599H28.9565H27.9565V71.6559H28.9565ZM28.9565 51.5599H29.9565C29.9565 48.5033 29.3291 46.0248 27.9034 44.299C26.4475 42.5366 24.3023 41.7279 21.6605 41.7279V42.7279V43.7279C23.8827 43.7279 25.3854 44.3912 26.3615 45.5728C27.3678 46.7909 27.9565 48.7285 27.9565 51.5599H28.9565ZM21.6605 42.7279V41.7279C19.0187 41.7279 16.8734 42.5366 15.4175 44.299C13.9918 46.0248 13.3645 48.5033 13.3645 51.5599H14.3645H15.3645C15.3645 48.7285 15.9531 46.7909 16.9594 45.5728C17.9355 44.3912 19.4383 43.7279 21.6605 43.7279V42.7279ZM14.3645 51.5599H13.3645V52.3279H14.3645H15.3645V51.5599H14.3645ZM14.3645 52.3279V51.3279H1.05247V52.3279V53.3279H14.3645V52.3279ZM1.05247 52.3279L2.05117 52.379L4.61117 2.33096L3.61248 2.27988L2.61378 2.22879L0.0537834 52.2768L1.05247 52.3279ZM3.61248 2.27988V3.27988H40.7325V2.27988V1.27988H3.61248V2.27988ZM40.7325 2.27988H39.7325V15.0799H40.7325H41.7325V2.27988H40.7325ZM40.7325 15.0799V14.0799H16.1565V15.0799V16.0799H40.7325V15.0799ZM16.1565 15.0799L15.1579 15.0261L14.0059 36.4021L15.0045 36.4559L16.003 36.5097L17.155 15.1337L16.1565 15.0799ZM15.0045 36.4559V37.4559H15.2605V36.4559V35.4559H15.0045V36.4559ZM15.2605 36.4559L16.115 36.9753C18.5636 32.9469 22.2778 30.9279 27.4205 30.9279V29.9279V28.9279C21.6405 28.9279 17.248 31.2608 14.406 35.9365L15.2605 36.4559ZM27.4205 29.9279V30.9279C32.2865 30.9279 35.8476 32.5741 38.2708 35.779L39.0685 35.1759L39.8661 34.5728C36.9987 30.7803 32.7945 28.9279 27.4205 28.9279V29.9279ZM39.0685 35.1759L38.2708 35.779C40.7325 39.0347 42.0365 43.8629 42.0365 50.4079H43.0365H44.0365C44.0365 43.6409 42.6951 38.3144 39.8661 34.5728L39.0685 35.1759ZM43.0365 50.4079H42.0365V70.6319H43.0365H44.0365V50.4079H43.0365ZM43.0365 70.6319H42.0365C42.0365 77.7277 40.2846 83.0427 36.922 86.7256L37.6605 87.3999L38.399 88.0742C42.2043 83.9064 44.0365 78.0428 44.0365 70.6319H43.0365ZM37.6605 87.3999L36.9294 86.7176C33.587 90.2988 28.6815 92.1599 22.0445 92.1599V93.1599V94.1599C29.0608 94.1599 34.566 92.181 38.3915 88.0822L37.6605 87.3999ZM57.1665 87.2719L57.897 86.589V86.589L57.1665 87.2719ZM57.1665 6.88788L57.897 7.57076V7.57076L57.1665 6.88788ZM88.9105 6.88788L88.1799 7.57076V7.57076L88.9105 6.88788ZM88.9105 87.2719L88.1799 86.589V86.589L88.9105 87.2719ZM73.0385 93.1599V92.1599C66.3195 92.1599 61.3267 90.258 57.897 86.589L57.1665 87.2719L56.436 87.9548C60.3449 92.1364 65.9334 94.1599 73.0385 94.1599V93.1599ZM57.1665 87.2719L57.897 86.589C54.4521 82.9037 52.6625 77.6329 52.6625 70.6319H51.6625H50.6625C50.6625 77.9669 52.5422 83.7894 56.436 87.9548L57.1665 87.2719ZM51.6625 70.6319H52.6625V23.5279H51.6625H50.6625V70.6319H51.6625ZM51.6625 23.5279H52.6625C52.6625 16.5268 54.4521 11.2561 57.897 7.57076L57.1665 6.88788L56.436 6.20499C52.5422 10.3704 50.6625 16.1929 50.6625 23.5279H51.6625ZM57.1665 6.88788L57.897 7.57076C61.3267 3.90176 66.3195 1.99988 73.0385 1.99988V0.999878V-0.00012207C65.9334 -0.00012207 60.3449 2.02333 56.436 6.20499L57.1665 6.88788ZM73.0385 0.999878V1.99988C79.7574 1.99988 84.7502 3.90176 88.1799 7.57076L88.9105 6.88788L89.641 6.20499C85.7321 2.02333 80.1435 -0.00012207 73.0385 -0.00012207V0.999878ZM88.9105 6.88788L88.1799 7.57076C91.6249 11.2561 93.4145 16.5268 93.4145 23.5279H94.4145H95.4145C95.4145 16.1929 93.5347 10.3704 89.641 6.20499L88.9105 6.88788ZM94.4145 23.5279H93.4145V70.6319H94.4145H95.4145V23.5279H94.4145ZM94.4145 70.6319H93.4145C93.4145 77.6329 91.6249 82.9037 88.1799 86.589L88.9105 87.2719L89.641 87.9548C93.5347 83.7894 95.4145 77.9669 95.4145 70.6319H94.4145ZM88.9105 87.2719L88.1799 86.589C84.7502 90.258 79.7574 92.1599 73.0385 92.1599V93.1599V94.1599C80.1435 94.1599 85.7321 92.1364 89.641 87.9548L88.9105 87.2719ZM73.0385 80.3599V81.3599C75.6803 81.3599 77.8255 80.5512 79.2814 78.7888C80.7071 77.0629 81.3345 74.5845 81.3345 71.5279H80.3345H79.3345C79.3345 74.3593 78.7458 76.2968 77.7395 77.515C76.7634 78.6966 75.2607 79.3599 73.0385 79.3599V80.3599ZM80.3345 71.5279H81.3345V22.6319H80.3345H79.3345V71.5279H80.3345ZM80.3345 22.6319H81.3345C81.3345 19.5753 80.7071 17.0968 79.2814 15.371C77.8255 13.6086 75.6803 12.7999 73.0385 12.7999V13.7999V14.7999C75.2607 14.7999 76.7634 15.4632 77.7395 16.6448C78.7458 17.8629 79.3345 19.8005 79.3345 22.6319H80.3345ZM73.0385 13.7999V12.7999C70.3967 12.7999 68.2514 13.6086 66.7955 15.371C65.3698 17.0968 64.7425 19.5753 64.7425 22.6319H65.7425H66.7425C66.7425 19.8005 67.3311 17.8629 68.3374 16.6448C69.3135 15.4632 70.8163 14.7999 73.0385 14.7999V13.7999ZM65.7425 22.6319H64.7425V71.5279H65.7425H66.7425V22.6319H65.7425ZM65.7425 71.5279H64.7425C64.7425 74.5845 65.3698 77.0629 66.7955 78.7888C68.2514 80.5512 70.3967 81.3599 73.0385 81.3599V80.3599V79.3599C70.8163 79.3599 69.3135 78.6966 68.3374 77.515C67.3311 76.2968 66.7425 74.3593 66.7425 71.5279H65.7425ZM108.416 87.2719L109.147 86.589V86.589L108.416 87.2719ZM108.416 6.88788L109.147 7.57076V7.57076L108.416 6.88788ZM140.16 6.88788L139.43 7.57076V7.57076L140.16 6.88788ZM140.16 87.2719L139.43 86.589V86.589L140.16 87.2719ZM124.288 93.1599V92.1599C117.57 92.1599 112.577 90.258 109.147 86.589L108.416 87.2719L107.686 87.9548C111.595 92.1364 117.183 94.1599 124.288 94.1599V93.1599ZM108.416 87.2719L109.147 86.589C105.702 82.9037 103.912 77.6329 103.912 70.6319H102.912H101.912C101.912 77.9669 103.792 83.7894 107.686 87.9548L108.416 87.2719ZM102.912 70.6319H103.912V23.5279H102.912H101.912V70.6319H102.912ZM102.912 23.5279H103.912C103.912 16.5268 105.702 11.2561 109.147 7.57076L108.416 6.88788L107.686 6.20499C103.792 10.3704 101.912 16.1929 101.912 23.5279H102.912ZM108.416 6.88788L109.147 7.57076C112.577 3.90176 117.57 1.99988 124.288 1.99988V0.999878V-0.00012207C117.183 -0.00012207 111.595 2.02333 107.686 6.20499L108.416 6.88788ZM124.288 0.999878V1.99988C131.007 1.99988 136 3.90176 139.43 7.57076L140.16 6.88788L140.891 6.20499C136.982 2.02333 131.394 -0.00012207 124.288 -0.00012207V0.999878ZM140.16 6.88788L139.43 7.57076C142.875 11.2561 144.664 16.5268 144.664 23.5279H145.664H146.664C146.664 16.1929 144.785 10.3704 140.891 6.20499L140.16 6.88788ZM145.664 23.5279H144.664V70.6319H145.664H146.664V23.5279H145.664ZM145.664 70.6319H144.664C144.664 77.6329 142.875 82.9037 139.43 86.589L140.16 87.2719L140.891 87.9548C144.785 83.7894 146.664 77.9669 146.664 70.6319H145.664ZM140.16 87.2719L139.43 86.589C136 90.258 131.007 92.1599 124.288 92.1599V93.1599V94.1599C131.394 94.1599 136.982 92.1364 140.891 87.9548L140.16 87.2719ZM124.288 80.3599V81.3599C126.93 81.3599 129.076 80.5512 130.531 78.7888C131.957 77.0629 132.584 74.5845 132.584 71.5279H131.584H130.584C130.584 74.3593 129.996 76.2968 128.99 77.515C128.013 78.6966 126.511 79.3599 124.288 79.3599V80.3599ZM131.584 71.5279H132.584V22.6319H131.584H130.584V71.5279H131.584ZM131.584 22.6319H132.584C132.584 19.5753 131.957 17.0968 130.531 15.371C129.076 13.6086 126.93 12.7999 124.288 12.7999V13.7999V14.7999C126.511 14.7999 128.013 15.4632 128.99 16.6448C129.996 17.8629 130.584 19.8005 130.584 22.6319H131.584ZM124.288 13.7999V12.7999C121.647 12.7999 119.501 13.6086 118.046 15.371C116.62 17.0968 115.992 19.5753 115.992 22.6319H116.992H117.992C117.992 19.8005 118.581 17.8629 119.587 16.6448C120.564 15.4632 122.066 14.7999 124.288 14.7999V13.7999ZM116.992 22.6319H115.992V71.5279H116.992H117.992V22.6319H116.992ZM116.992 71.5279H115.992C115.992 74.5845 116.62 77.0629 118.046 78.7888C119.501 80.5512 121.647 81.3599 124.288 81.3599V80.3599V79.3599C122.066 79.3599 120.564 78.6966 119.587 77.515C118.581 76.2968 117.992 74.3593 117.992 71.5279H116.992ZM170.546 52.0719H171.546V51.0719H170.546V52.0719ZM153.394 52.0719H152.394V53.0719H153.394V52.0719ZM153.394 42.0879V41.0879H152.394V42.0879H153.394ZM170.546 42.0879V43.0879H171.546V42.0879H170.546ZM170.546 24.8079V23.8079H169.546V24.8079H170.546ZM180.53 24.8079H181.53V23.8079H180.53V24.8079ZM180.53 42.0879H179.53V43.0879H180.53V42.0879ZM197.682 42.0879H198.682V41.0879H197.682V42.0879ZM197.682 52.0719V53.0719H198.682V52.0719H197.682ZM180.53 52.0719V51.0719H179.53V52.0719H180.53ZM180.53 69.6079V70.6079H181.53V69.6079H180.53ZM170.546 69.6079H169.546V70.6079H170.546V69.6079ZM170.546 52.0719V51.0719H153.394V52.0719V53.0719H170.546V52.0719ZM153.394 52.0719H154.394V42.0879H153.394H152.394V52.0719H153.394ZM153.394 42.0879V43.0879H170.546V42.0879V41.0879H153.394V42.0879ZM170.546 42.0879H171.546V24.8079H170.546H169.546V42.0879H170.546ZM170.546 24.8079V25.8079H180.53V24.8079V23.8079H170.546V24.8079ZM180.53 24.8079H179.53V42.0879H180.53H181.53V24.8079H180.53ZM180.53 42.0879V43.0879H197.682V42.0879V41.0879H180.53V42.0879ZM197.682 42.0879H196.682V52.0719H197.682H198.682V42.0879H197.682ZM197.682 52.0719V51.0719H180.53V52.0719V53.0719H197.682V52.0719ZM180.53 52.0719H179.53V69.6079H180.53H181.53V52.0719H180.53ZM180.53 69.6079V68.6079H170.546V69.6079V70.6079H180.53V69.6079ZM170.546 69.6079H171.546V52.0719H170.546H169.546V69.6079H170.546Z" fill="white" fill-opacity="0.2" mask="url(#path-1-outside-1_6278_2076)"/>
</svg>
