<svg width="201" height="95" viewBox="0 0 201 95" fill="none" xmlns="http://www.w3.org/2000/svg">
<mask id="path-1-outside-1_6278_1959" maskUnits="userSpaceOnUse" x="-0.936539" y="-0.120117" width="202" height="95" fill="black">
<rect fill="white" x="-0.936539" y="-0.120117" width="202" height="95"/>
<path d="M22.0445 93.1599C15.2178 93.1599 10.0125 91.2399 6.42846 87.3999C2.84446 83.4745 1.05246 77.8852 1.05246 70.6319V63.5919H14.3645V71.6559C14.3645 77.4585 16.7965 80.3599 21.6605 80.3599C26.5245 80.3599 28.9565 77.4585 28.9565 71.6559V51.5599C28.9565 45.6719 26.5245 42.7279 21.6605 42.7279C16.7965 42.7279 14.3645 45.6719 14.3645 51.5599V52.3279H1.05246L3.61246 2.27988H40.7325V15.0799H16.1565L15.0045 36.4559H15.2605C17.9058 32.1039 21.9591 29.9279 27.4205 29.9279C32.5405 29.9279 36.4231 31.6772 39.0685 35.1759C41.7138 38.6745 43.0365 43.7519 43.0365 50.4079V70.6319C43.0365 77.8852 41.2445 83.4745 37.6605 87.3999C34.0765 91.2399 28.8711 93.1599 22.0445 93.1599ZM73.0385 93.1599C66.1265 93.1599 60.8358 91.1972 57.1665 87.2719C53.4971 83.3465 51.6625 77.7999 51.6625 70.6319V23.5279C51.6625 16.3599 53.4971 10.8132 57.1665 6.88788C60.8358 2.96254 66.1265 0.999878 73.0385 0.999878C79.9505 0.999878 85.2411 2.96254 88.9105 6.88788C92.5798 10.8132 94.4145 16.3599 94.4145 23.5279V70.6319C94.4145 77.7999 92.5798 83.3465 88.9105 87.2719C85.2411 91.1972 79.9505 93.1599 73.0385 93.1599ZM73.0385 80.3599C77.9025 80.3599 80.3345 77.4159 80.3345 71.5279V22.6319C80.3345 16.7439 77.9025 13.7999 73.0385 13.7999C68.1745 13.7999 65.7425 16.7439 65.7425 22.6319V71.5279C65.7425 77.4159 68.1745 80.3599 73.0385 80.3599ZM103.936 2.27988H118.016V40.0399L135.936 2.27988H150.016L133.248 35.1759L150.272 91.8799H135.552L123.648 51.9439L118.016 63.3359V91.8799H103.936V2.27988ZM172.296 52.0719H155.144V42.0879H172.296V24.8079H182.28V42.0879H199.432V52.0719H182.28V69.6079H172.296V52.0719Z"/>
</mask>
<path d="M22.0445 93.1599C15.2178 93.1599 10.0125 91.2399 6.42846 87.3999C2.84446 83.4745 1.05246 77.8852 1.05246 70.6319V63.5919H14.3645V71.6559C14.3645 77.4585 16.7965 80.3599 21.6605 80.3599C26.5245 80.3599 28.9565 77.4585 28.9565 71.6559V51.5599C28.9565 45.6719 26.5245 42.7279 21.6605 42.7279C16.7965 42.7279 14.3645 45.6719 14.3645 51.5599V52.3279H1.05246L3.61246 2.27988H40.7325V15.0799H16.1565L15.0045 36.4559H15.2605C17.9058 32.1039 21.9591 29.9279 27.4205 29.9279C32.5405 29.9279 36.4231 31.6772 39.0685 35.1759C41.7138 38.6745 43.0365 43.7519 43.0365 50.4079V70.6319C43.0365 77.8852 41.2445 83.4745 37.6605 87.3999C34.0765 91.2399 28.8711 93.1599 22.0445 93.1599ZM73.0385 93.1599C66.1265 93.1599 60.8358 91.1972 57.1665 87.2719C53.4971 83.3465 51.6625 77.7999 51.6625 70.6319V23.5279C51.6625 16.3599 53.4971 10.8132 57.1665 6.88788C60.8358 2.96254 66.1265 0.999878 73.0385 0.999878C79.9505 0.999878 85.2411 2.96254 88.9105 6.88788C92.5798 10.8132 94.4145 16.3599 94.4145 23.5279V70.6319C94.4145 77.7999 92.5798 83.3465 88.9105 87.2719C85.2411 91.1972 79.9505 93.1599 73.0385 93.1599ZM73.0385 80.3599C77.9025 80.3599 80.3345 77.4159 80.3345 71.5279V22.6319C80.3345 16.7439 77.9025 13.7999 73.0385 13.7999C68.1745 13.7999 65.7425 16.7439 65.7425 22.6319V71.5279C65.7425 77.4159 68.1745 80.3599 73.0385 80.3599ZM103.936 2.27988H118.016V40.0399L135.936 2.27988H150.016L133.248 35.1759L150.272 91.8799H135.552L123.648 51.9439L118.016 63.3359V91.8799H103.936V2.27988ZM172.296 52.0719H155.144V42.0879H172.296V24.8079H182.28V42.0879H199.432V52.0719H182.28V69.6079H172.296V52.0719Z" fill="white" fill-opacity="0.11"/>
<path d="M6.42846 87.3999L5.68993 88.0742L5.6974 88.0822L6.42846 87.3999ZM1.05246 63.5919V62.5919H0.0524597V63.5919H1.05246ZM14.3645 63.5919H15.3645V62.5919H14.3645V63.5919ZM14.3645 52.3279V53.3279H15.3645V52.3279H14.3645ZM1.05246 52.3279L0.0537682 52.2768L3.8147e-06 53.3279H1.05246V52.3279ZM3.61246 2.27988V1.27988H2.66231L2.61377 2.22879L3.61246 2.27988ZM40.7325 2.27988H41.7325V1.27988H40.7325V2.27988ZM40.7325 15.0799V16.0799H41.7325V15.0799H40.7325ZM16.1565 15.0799V14.0799H15.2089L15.1579 15.0261L16.1565 15.0799ZM15.0045 36.4559L14.0059 36.4021L13.9491 37.4559H15.0045V36.4559ZM15.2605 36.4559V37.4559H15.8229L16.115 36.9753L15.2605 36.4559ZM39.0685 35.1759L38.2708 35.779V35.779L39.0685 35.1759ZM37.6605 87.3999L38.3916 88.0822L38.3989 88.0742L37.6605 87.3999ZM22.0445 93.1599V92.1599C15.4074 92.1599 10.502 90.2988 7.15952 86.7176L6.42846 87.3999L5.6974 88.0822C9.52296 92.181 15.0282 94.1599 22.0445 94.1599V93.1599ZM6.42846 87.3999L7.16695 86.7256C3.80431 83.0427 2.05246 77.7277 2.05246 70.6319H1.05246H0.0524597C0.0524597 78.0428 1.88461 83.9064 5.68998 88.0742L6.42846 87.3999ZM1.05246 70.6319H2.05246V63.5919H1.05246H0.0524597V70.6319H1.05246ZM1.05246 63.5919V64.5919H14.3645V63.5919V62.5919H1.05246V63.5919ZM14.3645 63.5919H13.3645V71.6559H14.3645H15.3645V63.5919H14.3645ZM14.3645 71.6559H13.3645C13.3645 74.6726 13.993 77.1213 15.4221 78.8263C16.8796 80.565 19.0234 81.3599 21.6605 81.3599V80.3599V79.3599C19.4335 79.3599 17.9294 78.7041 16.9548 77.5415C15.952 76.3451 15.3645 74.4419 15.3645 71.6559H14.3645ZM21.6605 80.3599V81.3599C24.2975 81.3599 26.4414 80.565 27.8988 78.8263C29.328 77.1213 29.9565 74.6726 29.9565 71.6559H28.9565H27.9565C27.9565 74.4419 27.369 76.3451 26.3661 77.5415C25.3916 78.7041 23.8875 79.3599 21.6605 79.3599V80.3599ZM28.9565 71.6559H29.9565V51.5599H28.9565H27.9565V71.6559H28.9565ZM28.9565 51.5599H29.9565C29.9565 48.5033 29.3291 46.0248 27.9034 44.299C26.4475 42.5366 24.3023 41.7279 21.6605 41.7279V42.7279V43.7279C23.8826 43.7279 25.3854 44.3912 26.3615 45.5728C27.3678 46.7909 27.9565 48.7285 27.9565 51.5599H28.9565ZM21.6605 42.7279V41.7279C19.0186 41.7279 16.8734 42.5366 15.4175 44.299C13.9918 46.0248 13.3645 48.5033 13.3645 51.5599H14.3645H15.3645C15.3645 48.7285 15.9531 46.7909 16.9594 45.5728C17.9355 44.3912 19.4383 43.7279 21.6605 43.7279V42.7279ZM14.3645 51.5599H13.3645V52.3279H14.3645H15.3645V51.5599H14.3645ZM14.3645 52.3279V51.3279H1.05246V52.3279V53.3279H14.3645V52.3279ZM1.05246 52.3279L2.05116 52.379L4.61115 2.33096L3.61246 2.27988L2.61377 2.22879L0.0537682 52.2768L1.05246 52.3279ZM3.61246 2.27988V3.27988H40.7325V2.27988V1.27988H3.61246V2.27988ZM40.7325 2.27988H39.7325V15.0799H40.7325H41.7325V2.27988H40.7325ZM40.7325 15.0799V14.0799H16.1565V15.0799V16.0799H40.7325V15.0799ZM16.1565 15.0799L15.1579 15.0261L14.0059 36.4021L15.0045 36.4559L16.003 36.5097L17.155 15.1337L16.1565 15.0799ZM15.0045 36.4559V37.4559H15.2605V36.4559V35.4559H15.0045V36.4559ZM15.2605 36.4559L16.115 36.9753C18.5636 32.9469 22.2778 30.9279 27.4205 30.9279V29.9279V28.9279C21.6405 28.9279 17.248 31.2608 14.4059 35.9365L15.2605 36.4559ZM27.4205 29.9279V30.9279C32.2864 30.9279 35.8476 32.5741 38.2708 35.779L39.0685 35.1759L39.8661 34.5728C36.9986 30.7803 32.7945 28.9279 27.4205 28.9279V29.9279ZM39.0685 35.1759L38.2708 35.779C40.7325 39.0347 42.0365 43.8629 42.0365 50.4079H43.0365H44.0365C44.0365 43.6409 42.6951 38.3144 39.8661 34.5728L39.0685 35.1759ZM43.0365 50.4079H42.0365V70.6319H43.0365H44.0365V50.4079H43.0365ZM43.0365 70.6319H42.0365C42.0365 77.7277 40.2846 83.0427 36.922 86.7256L37.6605 87.3999L38.3989 88.0742C42.2043 83.9064 44.0365 78.0428 44.0365 70.6319H43.0365ZM37.6605 87.3999L36.9294 86.7176C33.587 90.2988 28.6815 92.1599 22.0445 92.1599V93.1599V94.1599C29.0608 94.1599 34.566 92.181 38.3915 88.0822L37.6605 87.3999ZM57.1665 87.2719L57.897 86.589V86.589L57.1665 87.2719ZM57.1665 6.88788L57.897 7.57076V7.57076L57.1665 6.88788ZM88.9105 6.88788L88.1799 7.57076V7.57076L88.9105 6.88788ZM88.9105 87.2719L88.1799 86.589V86.589L88.9105 87.2719ZM73.0385 93.1599V92.1599C66.3195 92.1599 61.3267 90.258 57.897 86.589L57.1665 87.2719L56.4359 87.9548C60.3449 92.1364 65.9334 94.1599 73.0385 94.1599V93.1599ZM57.1665 87.2719L57.897 86.589C54.452 82.9037 52.6625 77.6329 52.6625 70.6319H51.6625H50.6625C50.6625 77.9669 52.5422 83.7894 56.4359 87.9548L57.1665 87.2719ZM51.6625 70.6319H52.6625V23.5279H51.6625H50.6625V70.6319H51.6625ZM51.6625 23.5279H52.6625C52.6625 16.5268 54.452 11.2561 57.897 7.57076L57.1665 6.88788L56.4359 6.20499C52.5422 10.3704 50.6625 16.1929 50.6625 23.5279H51.6625ZM57.1665 6.88788L57.897 7.57076C61.3267 3.90176 66.3195 1.99988 73.0385 1.99988V0.999878V-0.00012207C65.9334 -0.00012207 60.3449 2.02333 56.4359 6.20499L57.1665 6.88788ZM73.0385 0.999878V1.99988C79.7574 1.99988 84.7502 3.90176 88.1799 7.57076L88.9105 6.88788L89.641 6.20499C85.732 2.02333 80.1435 -0.00012207 73.0385 -0.00012207V0.999878ZM88.9105 6.88788L88.1799 7.57076C91.6249 11.2561 93.4145 16.5268 93.4145 23.5279H94.4145H95.4145C95.4145 16.1929 93.5347 10.3704 89.641 6.20499L88.9105 6.88788ZM94.4145 23.5279H93.4145V70.6319H94.4145H95.4145V23.5279H94.4145ZM94.4145 70.6319H93.4145C93.4145 77.6329 91.6249 82.9037 88.1799 86.589L88.9105 87.2719L89.641 87.9548C93.5347 83.7894 95.4145 77.9669 95.4145 70.6319H94.4145ZM88.9105 87.2719L88.1799 86.589C84.7502 90.258 79.7574 92.1599 73.0385 92.1599V93.1599V94.1599C80.1435 94.1599 85.732 92.1364 89.641 87.9548L88.9105 87.2719ZM73.0385 80.3599V81.3599C75.6803 81.3599 77.8255 80.5512 79.2814 78.7888C80.7071 77.0629 81.3345 74.5845 81.3345 71.5279H80.3345H79.3345C79.3345 74.3593 78.7458 76.2968 77.7395 77.515C76.7634 78.6966 75.2606 79.3599 73.0385 79.3599V80.3599ZM80.3345 71.5279H81.3345V22.6319H80.3345H79.3345V71.5279H80.3345ZM80.3345 22.6319H81.3345C81.3345 19.5753 80.7071 17.0968 79.2814 15.371C77.8255 13.6086 75.6803 12.7999 73.0385 12.7999V13.7999V14.7999C75.2606 14.7999 76.7634 15.4632 77.7395 16.6448C78.7458 17.8629 79.3345 19.8005 79.3345 22.6319H80.3345ZM73.0385 13.7999V12.7999C70.3966 12.7999 68.2514 13.6086 66.7955 15.371C65.3698 17.0968 64.7425 19.5753 64.7425 22.6319H65.7425H66.7425C66.7425 19.8005 67.3311 17.8629 68.3374 16.6448C69.3135 15.4632 70.8163 14.7999 73.0385 14.7999V13.7999ZM65.7425 22.6319H64.7425V71.5279H65.7425H66.7425V22.6319H65.7425ZM65.7425 71.5279H64.7425C64.7425 74.5845 65.3698 77.0629 66.7955 78.7888C68.2514 80.5512 70.3966 81.3599 73.0385 81.3599V80.3599V79.3599C70.8163 79.3599 69.3135 78.6966 68.3374 77.515C67.3311 76.2968 66.7425 74.3593 66.7425 71.5279H65.7425ZM103.936 2.27988V1.27988H102.936V2.27988H103.936ZM118.016 2.27988H119.016V1.27988H118.016V2.27988ZM118.016 40.0399H117.016L118.92 40.4686L118.016 40.0399ZM135.936 2.27988V1.27988H135.304L135.033 1.85114L135.936 2.27988ZM150.016 2.27988L150.907 2.73401L151.649 1.27988H150.016V2.27988ZM133.248 35.1759L132.358 34.7217L132.175 35.0792L132.291 35.4634L133.248 35.1759ZM150.272 91.8799V92.8799H151.617L151.23 91.5923L150.272 91.8799ZM135.552 91.8799L134.594 92.1655L134.807 92.8799H135.552V91.8799ZM123.648 51.9439L124.607 51.6582L123.88 49.2194L122.752 51.5007L123.648 51.9439ZM118.016 63.3359L117.12 62.8927L117.016 63.1022V63.3359H118.016ZM118.016 91.8799V92.8799H119.016V91.8799H118.016ZM103.936 91.8799H102.936V92.8799H103.936V91.8799ZM103.936 2.27988V3.27988H118.016V2.27988V1.27988H103.936V2.27988ZM118.016 2.27988H117.016V40.0399H118.016H119.016V2.27988H118.016ZM118.016 40.0399L118.92 40.4686L136.84 2.70862L135.936 2.27988L135.033 1.85114L117.113 39.6111L118.016 40.0399ZM135.936 2.27988V3.27988H150.016V2.27988V1.27988H135.936V2.27988ZM150.016 2.27988L149.126 1.82574L132.358 34.7217L133.248 35.1759L134.139 35.63L150.907 2.73401L150.016 2.27988ZM133.248 35.1759L132.291 35.4634L149.315 92.1674L150.272 91.8799L151.23 91.5923L134.206 34.8883L133.248 35.1759ZM150.272 91.8799V90.8799H135.552V91.8799V92.8799H150.272V91.8799ZM135.552 91.8799L136.511 91.5942L124.607 51.6582L123.648 51.9439L122.69 52.2295L134.594 92.1655L135.552 91.8799ZM123.648 51.9439L122.752 51.5007L117.12 62.8927L118.016 63.3359L118.913 63.7791L124.545 52.3871L123.648 51.9439ZM118.016 63.3359H117.016V91.8799H118.016H119.016V63.3359H118.016ZM118.016 91.8799V90.8799H103.936V91.8799V92.8799H118.016V91.8799ZM103.936 91.8799H104.936V2.27988H103.936H102.936V91.8799H103.936ZM172.296 52.0719H173.296V51.0719H172.296V52.0719ZM155.144 52.0719H154.144V53.0719H155.144V52.0719ZM155.144 42.0879V41.0879H154.144V42.0879H155.144ZM172.296 42.0879V43.0879H173.296V42.0879H172.296ZM172.296 24.8079V23.8079H171.296V24.8079H172.296ZM182.28 24.8079H183.28V23.8079H182.28V24.8079ZM182.28 42.0879H181.28V43.0879H182.28V42.0879ZM199.432 42.0879H200.432V41.0879H199.432V42.0879ZM199.432 52.0719V53.0719H200.432V52.0719H199.432ZM182.28 52.0719V51.0719H181.28V52.0719H182.28ZM182.28 69.6079V70.6079H183.28V69.6079H182.28ZM172.296 69.6079H171.296V70.6079H172.296V69.6079ZM172.296 52.0719V51.0719H155.144V52.0719V53.0719H172.296V52.0719ZM155.144 52.0719H156.144V42.0879H155.144H154.144V52.0719H155.144ZM155.144 42.0879V43.0879H172.296V42.0879V41.0879H155.144V42.0879ZM172.296 42.0879H173.296V24.8079H172.296H171.296V42.0879H172.296ZM172.296 24.8079V25.8079H182.28V24.8079V23.8079H172.296V24.8079ZM182.28 24.8079H181.28V42.0879H182.28H183.28V24.8079H182.28ZM182.28 42.0879V43.0879H199.432V42.0879V41.0879H182.28V42.0879ZM199.432 42.0879H198.432V52.0719H199.432H200.432V42.0879H199.432ZM199.432 52.0719V51.0719H182.28V52.0719V53.0719H199.432V52.0719ZM182.28 52.0719H181.28V69.6079H182.28H183.28V52.0719H182.28ZM182.28 69.6079V68.6079H172.296V69.6079V70.6079H182.28V69.6079ZM172.296 69.6079H173.296V52.0719H172.296H171.296V69.6079H172.296Z" fill="white" fill-opacity="0.2" mask="url(#path-1-outside-1_6278_1959)"/>
</svg>
