<svg width="201" height="95" viewBox="0 0 201 95" fill="none" xmlns="http://www.w3.org/2000/svg">
<mask id="path-1-outside-1_6278_2084" maskUnits="userSpaceOnUse" x="-0.47699" y="-0.120117" width="202" height="95" fill="black">
<rect fill="white" x="-0.47699" y="-0.120117" width="202" height="95"/>
<path d="M29.416 15.0799H1.00001V2.27988H43.24V14.5679L21.224 91.8799H6.88801L29.416 15.0799ZM73.498 93.1599C66.586 93.1599 61.2953 91.1972 57.626 87.2719C53.9567 83.3465 52.122 77.7999 52.122 70.6319V23.5279C52.122 16.3599 53.9567 10.8132 57.626 6.88788C61.2953 2.96254 66.586 0.999878 73.498 0.999878C80.41 0.999878 85.7007 2.96254 89.37 6.88788C93.0393 10.8132 94.874 16.3599 94.874 23.5279V70.6319C94.874 77.7999 93.0393 83.3465 89.37 87.2719C85.7007 91.1972 80.41 93.1599 73.498 93.1599ZM73.498 80.3599C78.362 80.3599 80.794 77.4159 80.794 71.5279V22.6319C80.794 16.7439 78.362 13.7999 73.498 13.7999C68.634 13.7999 66.202 16.7439 66.202 22.6319V71.5279C66.202 77.4159 68.634 80.3599 73.498 80.3599ZM104.396 2.27988H118.476V40.0399L136.396 2.27988H150.476L133.708 35.1759L150.732 91.8799H136.012L124.108 51.9439L118.476 63.3359V91.8799H104.396V2.27988ZM172.756 52.0719H155.604V42.0879H172.756V24.8079H182.74V42.0879H199.892V52.0719H182.74V69.6079H172.756V52.0719Z"/>
</mask>
<path d="M29.416 15.0799H1.00001V2.27988H43.24V14.5679L21.224 91.8799H6.88801L29.416 15.0799ZM73.498 93.1599C66.586 93.1599 61.2953 91.1972 57.626 87.2719C53.9567 83.3465 52.122 77.7999 52.122 70.6319V23.5279C52.122 16.3599 53.9567 10.8132 57.626 6.88788C61.2953 2.96254 66.586 0.999878 73.498 0.999878C80.41 0.999878 85.7007 2.96254 89.37 6.88788C93.0393 10.8132 94.874 16.3599 94.874 23.5279V70.6319C94.874 77.7999 93.0393 83.3465 89.37 87.2719C85.7007 91.1972 80.41 93.1599 73.498 93.1599ZM73.498 80.3599C78.362 80.3599 80.794 77.4159 80.794 71.5279V22.6319C80.794 16.7439 78.362 13.7999 73.498 13.7999C68.634 13.7999 66.202 16.7439 66.202 22.6319V71.5279C66.202 77.4159 68.634 80.3599 73.498 80.3599ZM104.396 2.27988H118.476V40.0399L136.396 2.27988H150.476L133.708 35.1759L150.732 91.8799H136.012L124.108 51.9439L118.476 63.3359V91.8799H104.396V2.27988ZM172.756 52.0719H155.604V42.0879H172.756V24.8079H182.74V42.0879H199.892V52.0719H182.74V69.6079H172.756V52.0719Z" fill="white" fill-opacity="0.11"/>
<path d="M29.416 15.0799L30.3756 15.3614L30.7515 14.0799H29.416V15.0799ZM1.00001 15.0799H1.14441e-05V16.0799H1.00001V15.0799ZM1.00001 2.27988V1.27988H1.14441e-05V2.27988H1.00001ZM43.24 2.27988H44.24V1.27988H43.24V2.27988ZM43.24 14.5679L44.2018 14.8418L44.24 14.7075V14.5679H43.24ZM21.224 91.8799V92.8799H21.979L22.1858 92.1538L21.224 91.8799ZM6.88801 91.8799L5.92844 91.5984L5.55254 92.8799H6.88801V91.8799ZM29.416 15.0799V14.0799H1.00001V15.0799V16.0799H29.416V15.0799ZM1.00001 15.0799H2.00001V2.27988H1.00001H1.14441e-05V15.0799H1.00001ZM1.00001 2.27988V3.27988H43.24V2.27988V1.27988H1.00001V2.27988ZM43.24 2.27988H42.24V14.5679H43.24H44.24V2.27988H43.24ZM43.24 14.5679L42.2782 14.294L20.2622 91.606L21.224 91.8799L22.1858 92.1538L44.2018 14.8418L43.24 14.5679ZM21.224 91.8799V90.8799H6.88801V91.8799V92.8799H21.224V91.8799ZM6.88801 91.8799L7.84758 92.1614L30.3756 15.3614L29.416 15.0799L28.4564 14.7984L5.92844 91.5984L6.88801 91.8799ZM57.626 87.2719L58.3565 86.589V86.589L57.626 87.2719ZM57.626 6.88788L58.3565 7.57076V7.57076L57.626 6.88788ZM89.37 6.88788L88.6395 7.57076V7.57076L89.37 6.88788ZM89.37 87.2719L88.6395 86.589V86.589L89.37 87.2719ZM73.498 93.1599V92.1599C66.7791 92.1599 61.7863 90.258 58.3565 86.589L57.626 87.2719L56.8955 87.9548C60.8044 92.1364 66.3929 94.1599 73.498 94.1599V93.1599ZM57.626 87.2719L58.3565 86.589C54.9116 82.9037 53.122 77.6329 53.122 70.6319H52.122H51.122C51.122 77.9669 53.0018 83.7894 56.8955 87.9548L57.626 87.2719ZM52.122 70.6319H53.122V23.5279H52.122H51.122V70.6319H52.122ZM52.122 23.5279H53.122C53.122 16.5268 54.9116 11.2561 58.3565 7.57076L57.626 6.88788L56.8955 6.20499C53.0018 10.3704 51.122 16.1929 51.122 23.5279H52.122ZM57.626 6.88788L58.3565 7.57076C61.7863 3.90176 66.7791 1.99988 73.498 1.99988V0.999878V-0.00012207C66.3929 -0.00012207 60.8044 2.02333 56.8955 6.20499L57.626 6.88788ZM73.498 0.999878V1.99988C80.2169 1.99988 85.2098 3.90176 88.6395 7.57076L89.37 6.88788L90.1005 6.20499C86.1916 2.02333 80.6031 -0.00012207 73.498 -0.00012207V0.999878ZM89.37 6.88788L88.6395 7.57076C92.0844 11.2561 93.874 16.5268 93.874 23.5279H94.874H95.874C95.874 16.1929 93.9943 10.3704 90.1005 6.20499L89.37 6.88788ZM94.874 23.5279H93.874V70.6319H94.874H95.874V23.5279H94.874ZM94.874 70.6319H93.874C93.874 77.6329 92.0844 82.9037 88.6395 86.589L89.37 87.2719L90.1005 87.9548C93.9943 83.7894 95.874 77.9669 95.874 70.6319H94.874ZM89.37 87.2719L88.6395 86.589C85.2098 90.258 80.2169 92.1599 73.498 92.1599V93.1599V94.1599C80.6031 94.1599 86.1916 92.1364 90.1005 87.9548L89.37 87.2719ZM73.498 80.3599V81.3599C76.1398 81.3599 78.285 80.5512 79.741 78.7888C81.1667 77.0629 81.794 74.5845 81.794 71.5279H80.794H79.794C79.794 74.3593 79.2054 76.2968 78.1991 77.515C77.223 78.6966 75.7202 79.3599 73.498 79.3599V80.3599ZM80.794 71.5279H81.794V22.6319H80.794H79.794V71.5279H80.794ZM80.794 22.6319H81.794C81.794 19.5753 81.1667 17.0968 79.741 15.371C78.285 13.6086 76.1398 12.7999 73.498 12.7999V13.7999V14.7999C75.7202 14.7999 77.223 15.4632 78.1991 16.6448C79.2054 17.8629 79.794 19.8005 79.794 22.6319H80.794ZM73.498 13.7999V12.7999C70.8562 12.7999 68.711 13.6086 67.2551 15.371C65.8294 17.0968 65.202 19.5753 65.202 22.6319H66.202H67.202C67.202 19.8005 67.7907 17.8629 68.797 16.6448C69.7731 15.4632 71.2758 14.7999 73.498 14.7999V13.7999ZM66.202 22.6319H65.202V71.5279H66.202H67.202V22.6319H66.202ZM66.202 71.5279H65.202C65.202 74.5845 65.8294 77.0629 67.2551 78.7888C68.711 80.5512 70.8562 81.3599 73.498 81.3599V80.3599V79.3599C71.2758 79.3599 69.7731 78.6966 68.797 77.515C67.7907 76.2968 67.202 74.3593 67.202 71.5279H66.202ZM104.396 2.27988V1.27988H103.396V2.27988H104.396ZM118.476 2.27988H119.476V1.27988H118.476V2.27988ZM118.476 40.0399H117.476L119.379 40.4686L118.476 40.0399ZM136.396 2.27988V1.27988H135.764L135.493 1.85114L136.396 2.27988ZM150.476 2.27988L151.367 2.73401L152.108 1.27988H150.476V2.27988ZM133.708 35.1759L132.817 34.7217L132.635 35.0792L132.75 35.4634L133.708 35.1759ZM150.732 91.8799V92.8799H152.076L151.69 91.5923L150.732 91.8799ZM136.012 91.8799L135.054 92.1655L135.267 92.8799H136.012V91.8799ZM124.108 51.9439L125.066 51.6582L124.339 49.2194L123.212 51.5007L124.108 51.9439ZM118.476 63.3359L117.58 62.8927L117.476 63.1022V63.3359H118.476ZM118.476 91.8799V92.8799H119.476V91.8799H118.476ZM104.396 91.8799H103.396V92.8799H104.396V91.8799ZM104.396 2.27988V3.27988H118.476V2.27988V1.27988H104.396V2.27988ZM118.476 2.27988H117.476V40.0399H118.476H119.476V2.27988H118.476ZM118.476 40.0399L119.379 40.4686L137.299 2.70862L136.396 2.27988L135.493 1.85114L117.573 39.6111L118.476 40.0399ZM136.396 2.27988V3.27988H150.476V2.27988V1.27988H136.396V2.27988ZM150.476 2.27988L149.585 1.82574L132.817 34.7217L133.708 35.1759L134.599 35.63L151.367 2.73401L150.476 2.27988ZM133.708 35.1759L132.75 35.4634L149.774 92.1674L150.732 91.8799L151.69 91.5923L134.666 34.8883L133.708 35.1759ZM150.732 91.8799V90.8799H136.012V91.8799V92.8799H150.732V91.8799ZM136.012 91.8799L136.97 91.5942L125.066 51.6582L124.108 51.9439L123.15 52.2295L135.054 92.1655L136.012 91.8799ZM124.108 51.9439L123.212 51.5007L117.58 62.8927L118.476 63.3359L119.372 63.7791L125.004 52.3871L124.108 51.9439ZM118.476 63.3359H117.476V91.8799H118.476H119.476V63.3359H118.476ZM118.476 91.8799V90.8799H104.396V91.8799V92.8799H118.476V91.8799ZM104.396 91.8799H105.396V2.27988H104.396H103.396V91.8799H104.396ZM172.756 52.0719H173.756V51.0719H172.756V52.0719ZM155.604 52.0719H154.604V53.0719H155.604V52.0719ZM155.604 42.0879V41.0879H154.604V42.0879H155.604ZM172.756 42.0879V43.0879H173.756V42.0879H172.756ZM172.756 24.8079V23.8079H171.756V24.8079H172.756ZM182.74 24.8079H183.74V23.8079H182.74V24.8079ZM182.74 42.0879H181.74V43.0879H182.74V42.0879ZM199.892 42.0879H200.892V41.0879H199.892V42.0879ZM199.892 52.0719V53.0719H200.892V52.0719H199.892ZM182.74 52.0719V51.0719H181.74V52.0719H182.74ZM182.74 69.6079V70.6079H183.74V69.6079H182.74ZM172.756 69.6079H171.756V70.6079H172.756V69.6079ZM172.756 52.0719V51.0719H155.604V52.0719V53.0719H172.756V52.0719ZM155.604 52.0719H156.604V42.0879H155.604H154.604V52.0719H155.604ZM155.604 42.0879V43.0879H172.756V42.0879V41.0879H155.604V42.0879ZM172.756 42.0879H173.756V24.8079H172.756H171.756V42.0879H172.756ZM172.756 24.8079V25.8079H182.74V24.8079V23.8079H172.756V24.8079ZM182.74 24.8079H181.74V42.0879H182.74H183.74V24.8079H182.74ZM182.74 42.0879V43.0879H199.892V42.0879V41.0879H182.74V42.0879ZM199.892 42.0879H198.892V52.0719H199.892H200.892V42.0879H199.892ZM199.892 52.0719V51.0719H182.74V52.0719V53.0719H199.892V52.0719ZM182.74 52.0719H181.74V69.6079H182.74H183.74V52.0719H182.74ZM182.74 69.6079V68.6079H172.756V69.6079V70.6079H182.74V69.6079ZM172.756 69.6079H173.756V52.0719H172.756H171.756V69.6079H172.756Z" fill="white" fill-opacity="0.2" mask="url(#path-1-outside-1_6278_2084)"/>
</svg>
