<svg width="168" height="54" viewBox="0 0 168 54" fill="none" xmlns="http://www.w3.org/2000/svg">
<rect x="0.710526" y="0.710526" width="166.263" height="52.5789" rx="7.81579" fill="black"/>
<rect x="0.710526" y="0.710526" width="166.263" height="52.5789" rx="7.81579" stroke="#A6A6A6" stroke-width="1.42105"/>
<path d="M32.2641 28.0844C32.2814 26.7772 32.637 25.4955 33.298 24.3585C33.959 23.2215 34.9038 22.2662 36.0445 21.5815C35.3199 20.5711 34.3638 19.7396 33.2524 19.1529C32.141 18.5663 30.9047 18.2408 29.6419 18.2022C26.948 17.9262 24.3365 19.776 22.9637 19.776C21.5644 19.776 19.4509 18.2296 17.1749 18.2753C15.7028 18.3218 14.268 18.7397 13.0105 19.4884C11.753 20.2372 10.7156 21.2912 9.99941 22.5477C6.89694 27.7919 9.21111 35.4992 12.1831 39.7383C13.67 41.8141 15.4078 44.1327 17.6817 44.0505C19.9068 43.9604 20.7379 42.6652 23.4238 42.6652C26.0848 42.6652 26.8645 44.0505 29.1845 43.9982C31.5722 43.9604 33.0765 41.9132 34.5113 39.8178C35.5797 38.3388 36.4018 36.7041 36.9472 34.9744C35.56 34.4016 34.3762 33.4428 33.5435 32.2176C32.7107 30.9923 32.2657 29.5549 32.2641 28.0844Z" fill="white"/>
<path d="M27.882 15.4144C29.1839 13.8886 29.8253 11.9274 29.67 9.94739C27.681 10.1513 25.8438 11.0794 24.5243 12.5466C23.8792 13.2634 23.3851 14.0973 23.0703 15.0007C22.7555 15.904 22.6261 16.859 22.6896 17.8112C23.6844 17.8212 24.6686 17.6107 25.568 17.1955C26.4674 16.7803 27.2586 16.1713 27.882 15.4144Z" fill="white"/>
<path d="M49.4399 15.9758H52.3812C54.9228 15.9758 56.1593 17.487 56.1593 20.2285C56.1593 22.97 54.9104 24.5 52.3812 24.5H49.4399V15.9758ZM50.8574 17.1685V23.3072H52.2251C53.9112 23.3072 54.7043 22.2893 54.7043 20.2473C54.7043 18.1927 53.9049 17.1685 52.2251 17.1685H50.8574ZM60.6431 17.7868C62.3667 17.7868 63.572 18.9046 63.572 20.7593V21.6149C63.572 23.532 62.3667 24.6124 60.6431 24.6124C58.8946 24.6124 57.7018 23.5445 57.7018 21.6211V20.7656C57.7018 18.9608 58.9133 17.7868 60.6431 17.7868ZM60.6494 18.9046C59.6627 18.9046 59.1007 19.7289 59.1007 20.8343V21.5712C59.1007 22.6765 59.6252 23.4946 60.6494 23.4946C61.661 23.4946 62.1794 22.6827 62.1794 21.5712V20.8343C62.1794 19.7289 61.6361 18.9046 60.6494 18.9046ZM73.7511 17.8992L72.015 24.5H70.6037L69.2236 19.629H69.1861L67.831 24.5H66.4134L64.6024 17.8992H66.0949L67.1565 22.9325H67.219L68.5491 17.8992H69.8543L71.2219 22.9325H71.2844L72.3647 17.8992H73.7511ZM75.125 24.5V17.8992H76.4863V19.0857H76.555C76.7236 18.5674 77.2045 17.7993 78.5409 17.7993C79.8711 17.7993 80.7641 18.5362 80.7641 20.0412V24.5H79.3777V20.4471C79.3777 19.4417 78.8531 18.9795 78.0725 18.9795C77.0484 18.9795 76.5113 19.7664 76.5113 20.8343V24.5H75.125ZM82.8623 24.5V15.5261H84.2487V24.5H82.8623ZM89.0073 17.7868C90.7309 17.7868 91.9361 18.9046 91.9361 20.7593V21.6149C91.9361 23.532 90.7309 24.6124 89.0073 24.6124C87.2587 24.6124 86.066 23.5445 86.066 21.6211V20.7656C86.066 18.9608 87.2775 17.7868 89.0073 17.7868ZM89.0135 18.9046C88.0268 18.9046 87.4648 19.7289 87.4648 20.8343V21.5712C87.4648 22.6765 87.9894 23.4946 89.0135 23.4946C90.0252 23.4946 90.5435 22.6827 90.5435 21.5712V20.8343C90.5435 19.7289 90.0002 18.9046 89.0135 18.9046ZM95.5269 24.5999C94.2467 24.5999 93.3662 23.8131 93.3662 22.5828C93.3662 21.415 94.178 20.6282 95.7018 20.6282H97.3692V20.0099C97.3692 19.2543 96.8883 18.8984 96.1264 18.8984C95.377 18.8984 95.0398 19.2106 94.9337 19.6477H93.616C93.6972 18.5424 94.5277 17.7993 96.1701 17.7993C97.5815 17.7993 98.7493 18.3863 98.7493 20.0287V24.5H97.4316V23.6445H97.3692C97.0756 24.1503 96.5011 24.5999 95.5269 24.5999ZM95.9578 23.5258C96.7447 23.5258 97.3692 22.9887 97.3692 22.2706V21.5587H95.9203C95.1148 21.5587 94.7588 21.9646 94.7588 22.5141C94.7588 23.2011 95.3333 23.5258 95.9578 23.5258ZM103.021 17.8118C103.951 17.8118 104.663 18.2239 104.919 18.8921H104.988V15.5261H106.374V24.5H105.025V23.4446H104.957C104.757 24.1128 103.964 24.5874 103.002 24.5874C101.485 24.5874 100.498 23.5071 100.498 21.7648V20.6344C100.498 18.8921 101.503 17.8118 103.021 17.8118ZM103.408 18.9483C102.484 18.9483 101.909 19.6353 101.909 20.8343V21.5587C101.909 22.7639 102.49 23.4509 103.439 23.4509C104.376 23.4509 104.988 22.7702 104.988 21.6461V20.6469C104.988 19.629 104.32 18.9483 103.408 18.9483ZM113.987 17.7868C115.71 17.7868 116.916 18.9046 116.916 20.7593V21.6149C116.916 23.532 115.71 24.6124 113.987 24.6124C112.238 24.6124 111.045 23.5445 111.045 21.6211V20.7656C111.045 18.9608 112.257 17.7868 113.987 17.7868ZM113.993 18.9046C113.006 18.9046 112.444 19.7289 112.444 20.8343V21.5712C112.444 22.6765 112.969 23.4946 113.993 23.4946C115.005 23.4946 115.523 22.6827 115.523 21.5712V20.8343C115.523 19.7289 114.98 18.9046 113.993 18.9046ZM118.702 24.5V17.8992H120.063V19.0857H120.132C120.3 18.5674 120.781 17.7993 122.118 17.7993C123.448 17.7993 124.341 18.5362 124.341 20.0412V24.5H122.954V20.4471C122.954 19.4417 122.43 18.9795 121.649 18.9795C120.625 18.9795 120.088 19.7664 120.088 20.8343V24.5H118.702ZM129.705 17.9429V16.2943H131.06V17.9429H132.54V19.0295H131.06V22.5329C131.06 23.251 131.329 23.4509 132.072 23.4509C132.259 23.4509 132.509 23.4384 132.615 23.4259V24.4875C132.503 24.5062 132.041 24.5437 131.728 24.5437C130.123 24.5437 129.686 23.9692 129.686 22.6453V19.0295H128.681V17.9429H129.705ZM134.289 24.5V15.5261H135.669V19.0857H135.738C135.881 18.6173 136.418 17.7993 137.742 17.7993C139.029 17.7993 139.947 18.5424 139.947 20.0474V24.5H138.566V20.4533C138.566 19.4479 138.011 18.9795 137.224 18.9795C136.231 18.9795 135.669 19.7602 135.669 20.8343V24.5H134.289ZM144.599 24.6124C142.801 24.6124 141.683 23.5071 141.683 21.6461V20.7531C141.683 18.8796 142.907 17.7868 144.518 17.7868C146.173 17.7868 147.341 18.9358 147.341 20.7531V21.5274H143.057V21.8522C143.057 22.8014 143.619 23.5008 144.593 23.5008C145.317 23.5008 145.817 23.1574 145.91 22.7452H147.266C147.184 23.5071 146.379 24.6124 144.599 24.6124ZM143.057 20.6219H145.985V20.5345C145.985 19.5416 145.405 18.8796 144.524 18.8796C143.644 18.8796 143.057 19.5416 143.057 20.5345V20.6219Z" fill="white"/>
<path d="M51.4507 44.5H48.5656L54.4357 27.4515H57.6081L63.4658 44.5H60.4683L58.957 39.7789H52.9744L51.4507 44.5ZM56.0344 30.3991H55.922L53.6114 37.6057H58.32L56.0344 30.3991ZM71.4283 44.6873C69.7172 44.6873 68.4183 43.8755 67.7189 42.664H67.6189V48.8839H64.8462V31.2984H67.544V33.2343H67.6439C68.3683 31.9728 69.7172 31.1235 71.4908 31.1235C74.4508 31.1235 76.5616 33.3592 76.5616 37.3059V38.48C76.5616 42.4017 74.4758 44.6873 71.4283 44.6873ZM70.7913 42.4017C72.5524 42.4017 73.7514 40.9904 73.7514 38.3301V37.4058C73.7514 34.8454 72.6273 33.3841 70.7414 33.3841C68.8055 33.3841 67.594 34.9579 67.594 37.3933V38.3301C67.594 40.828 68.818 42.4017 70.7913 42.4017ZM85.5233 44.6873C83.8122 44.6873 82.5132 43.8755 81.8138 42.664H81.7139V48.8839H78.9412V31.2984H81.639V33.2343H81.7389C82.4633 31.9728 83.8122 31.1235 85.5857 31.1235C88.5458 31.1235 90.6565 33.3592 90.6565 37.3059V38.48C90.6565 42.4017 88.5708 44.6873 85.5233 44.6873ZM84.8863 42.4017C86.6473 42.4017 87.8464 40.9904 87.8464 38.3301V37.4058C87.8464 34.8454 86.7223 33.3841 84.8363 33.3841C82.9004 33.3841 81.6889 34.9579 81.6889 37.3933V38.3301C81.6889 40.828 82.9129 42.4017 84.8863 42.4017ZM96.4024 39.7664H99.1751C99.3 41.2402 100.599 42.5016 103.009 42.5016C105.22 42.5016 106.532 41.465 106.532 39.8538C106.532 38.5549 105.657 37.8555 103.834 37.4183L101.036 36.7189C98.8379 36.2068 96.8645 34.8954 96.8645 32.1227C96.8645 28.8629 99.7122 27.0768 103.022 27.0768C106.332 27.0768 109.092 28.8629 109.154 32.0477H106.432C106.307 30.5989 105.195 29.3999 102.985 29.3999C101.036 29.3999 99.7122 30.3242 99.7122 31.9104C99.7122 33.0219 100.487 33.8213 102.073 34.1835L104.858 34.8704C107.418 35.4949 109.367 36.7064 109.367 39.604C109.367 42.9513 106.656 44.8372 102.797 44.8372C98.0511 44.8372 96.4649 42.0645 96.4024 39.7664ZM112.746 31.2984V28.0885H115.468V31.2984H118.041V33.5215H115.468V40.5657C115.468 42.0021 116.005 42.4017 117.492 42.4017C117.729 42.4017 117.954 42.4017 118.116 42.3767V44.5C117.891 44.5375 117.367 44.5874 116.805 44.5874C113.595 44.5874 112.708 43.4384 112.708 40.7906V33.5215H110.885V31.2984H112.746ZM125.529 31.0736C129.326 31.0736 131.387 33.7464 131.387 37.3434V38.405C131.387 42.127 129.338 44.7248 125.529 44.7248C121.72 44.7248 119.646 42.127 119.646 38.405V37.3434C119.646 33.7588 121.732 31.0736 125.529 31.0736ZM125.529 33.2967C123.468 33.2967 122.444 34.9828 122.444 37.3809V38.3925C122.444 40.7531 123.456 42.4892 125.529 42.4892C127.602 42.4892 128.602 40.7656 128.602 38.3925V37.3809C128.602 34.9703 127.59 33.2967 125.529 33.2967ZM133.729 44.5V31.2984H136.502V33.0344H136.602C136.939 32.2101 137.925 31.111 139.761 31.111C140.124 31.111 140.436 31.136 140.698 31.186V33.6339C140.461 33.5715 139.974 33.534 139.512 33.534C137.288 33.534 136.539 34.9079 136.539 36.6814V44.5H133.729ZM147.424 44.7248C143.89 44.7248 141.641 42.3892 141.641 38.48V37.1436C141.641 33.4591 143.84 31.0736 147.312 31.0736C150.834 31.0736 152.957 33.5465 152.957 37.2685V38.5299H144.377V38.8422C144.377 41.0653 145.576 42.5391 147.462 42.5391C148.873 42.5391 149.835 41.8397 150.172 40.7031H152.807C152.408 42.8389 150.684 44.7248 147.424 44.7248ZM144.377 36.594H150.247V36.569C150.247 34.6956 149.085 33.2218 147.324 33.2218C145.538 33.2218 144.377 34.6956 144.377 36.569V36.594Z" fill="white"/>
</svg>
