<svg width="32" height="32" viewBox="0 0 32 32" fill="none" xmlns="http://www.w3.org/2000/svg">
<g clip-path="url(#clip0_6315_197)">
<path d="M32 16C32 7.16352 24.8365 0 16 0C7.16352 0 0 7.16352 0 16C0 23.5034 5.16608 29.7997 12.135 31.529V20.8896H8.83584V16H12.135V13.8931C12.135 8.44736 14.5997 5.9232 19.9462 5.9232C20.96 5.9232 22.7091 6.12224 23.4246 6.32064V10.7526C23.047 10.713 22.391 10.6931 21.5763 10.6931C18.953 10.6931 17.9392 11.687 17.9392 14.2707V16H23.1654L22.2675 20.8896H17.9392V31.8829C25.8618 30.9261 32.0006 24.1805 32.0006 16H32Z" fill="#0866FF"/>
<path d="M22.2669 20.8897L23.1648 16.0001H17.9386V14.2709C17.9386 11.6872 18.9523 10.6933 21.5757 10.6933C22.3904 10.6933 23.0464 10.7131 23.424 10.7528V6.32078C22.7085 6.12174 20.9594 5.92334 19.9456 5.92334C14.599 5.92334 12.1344 8.4475 12.1344 13.8933V16.0001H8.83521V20.8897H12.1344V31.5291C13.3722 31.8363 14.6669 32.0001 15.9994 32.0001C16.6554 32.0001 17.3024 31.9598 17.9379 31.883V20.8897H22.2662H22.2669Z" fill="white"/>
</g>
<defs>
<clipPath id="clip0_6315_197">
<rect width="32" height="32" fill="white"/>
</clipPath>
</defs>
</svg>
