<svg width="32" height="32" viewBox="0 0 32 32" fill="none" xmlns="http://www.w3.org/2000/svg">
<path d="M16.0096 0C9.32791 0 7.37378 0.00689289 6.99393 0.0384033C5.62274 0.152382 4.7695 0.368277 3.83994 0.831086C3.12357 1.18681 2.5586 1.59915 2.00102 2.17717C0.985547 3.23129 0.37011 4.52814 0.147322 6.06968C0.039005 6.81805 0.00749465 6.97068 0.00109411 10.7933C-0.00136764 12.0675 0.00109411 13.7444 0.00109411 15.9937C0.00109411 22.67 0.00847935 24.6221 0.0404821 25.0013C0.151261 26.3355 0.360509 27.175 0.803623 28.0932C1.65046 29.8509 3.26783 31.1704 5.17322 31.6627C5.83297 31.8326 6.56165 31.9261 7.49711 31.9705C7.89345 31.9877 11.9332 32 15.9754 32C20.0176 32 24.0597 31.9951 24.4462 31.9754C25.5294 31.9244 26.1584 31.84 26.8538 31.6603C27.7986 31.418 28.6791 30.9724 29.4338 30.3546C30.1885 29.7368 30.7993 28.9617 31.2234 28.0834C31.6579 27.1873 31.8783 26.3158 31.978 25.0512C31.9996 24.7755 32.0087 20.3796 32.0087 15.9895C32.0087 11.5988 31.9989 7.21095 31.9772 6.93523C31.8763 5.6502 31.656 4.78613 31.2074 3.87282C30.8394 3.12519 30.4307 2.56686 29.8375 1.99598C28.7789 0.984699 27.484 0.369262 25.9408 0.14672C25.1931 0.0386494 25.0442 0.00664672 21.2186 0H16.0096Z" fill="url(#paint0_radial_6315_210)"/>
<path d="M16.0096 0C9.32791 0 7.37378 0.00689289 6.99393 0.0384033C5.62274 0.152382 4.7695 0.368277 3.83994 0.831086C3.12357 1.18681 2.5586 1.59915 2.00102 2.17717C0.985547 3.23129 0.37011 4.52814 0.147322 6.06968C0.039005 6.81805 0.00749465 6.97068 0.00109411 10.7933C-0.00136764 12.0675 0.00109411 13.7444 0.00109411 15.9937C0.00109411 22.67 0.00847935 24.6221 0.0404821 25.0013C0.151261 26.3355 0.360509 27.175 0.803623 28.0932C1.65046 29.8509 3.26783 31.1704 5.17322 31.6627C5.83297 31.8326 6.56165 31.9261 7.49711 31.9705C7.89345 31.9877 11.9332 32 15.9754 32C20.0176 32 24.0597 31.9951 24.4462 31.9754C25.5294 31.9244 26.1584 31.84 26.8538 31.6603C27.7986 31.418 28.6791 30.9724 29.4338 30.3546C30.1885 29.7368 30.7993 28.9617 31.2234 28.0834C31.6579 27.1873 31.8783 26.3158 31.978 25.0512C31.9996 24.7755 32.0087 20.3796 32.0087 15.9895C32.0087 11.5988 31.9989 7.21095 31.9772 6.93523C31.8763 5.6502 31.656 4.78613 31.2074 3.87282C30.8394 3.12519 30.4307 2.56686 29.8375 1.99598C28.7789 0.984699 27.484 0.369262 25.9408 0.14672C25.1931 0.0386494 25.0442 0.00664672 21.2186 0H16.0096Z" fill="url(#paint1_radial_6315_210)"/>
<path d="M16.0022 4.18506C12.793 4.18506 12.3903 4.19909 11.1299 4.25645C9.87194 4.31405 9.01328 4.51321 8.26196 4.80542C7.48478 5.10723 6.82553 5.51096 6.16873 6.168C5.51145 6.82479 5.10772 7.48405 4.80493 8.26097C4.51198 9.01254 4.31258 9.87145 4.25596 11.1289C4.19983 12.3893 4.18506 12.7923 4.18506 16.0014C4.18506 19.2106 4.19934 19.6121 4.25645 20.8725C4.3143 22.1305 4.51346 22.9891 4.80542 23.7404C5.10748 24.5176 5.5112 25.1769 6.16824 25.8337C6.82479 26.4909 7.48405 26.8957 8.26073 27.1975C9.01254 27.4897 9.87145 27.6888 11.1292 27.7464C12.3896 27.8038 12.7921 27.8178 16.0009 27.8178C19.2103 27.8178 19.6118 27.8038 20.8723 27.7464C22.1302 27.6888 22.9898 27.4897 23.7417 27.1975C24.5186 26.8957 25.1769 26.4909 25.8334 25.8337C26.4907 25.1769 26.8944 24.5176 27.1972 23.7407C27.4877 22.9891 27.6871 22.1302 27.7462 20.8727C27.8028 19.6123 27.8176 19.2106 27.8176 16.0014C27.8176 12.7923 27.8028 12.3896 27.7462 11.1292C27.6871 9.8712 27.4877 9.01254 27.1972 8.26122C26.8944 7.48405 26.4907 6.82479 25.8334 6.168C25.1761 5.51071 24.5188 5.10698 23.7409 4.80542C22.9876 4.51321 22.1285 4.31405 20.8705 4.25645C19.6101 4.19909 19.2089 4.18506 15.9987 4.18506H16.0022ZM14.9422 6.31447C15.2568 6.31398 15.6078 6.31447 16.0022 6.31447C19.1572 6.31447 19.5311 6.32579 20.777 6.38241C21.9291 6.4351 22.5544 6.6276 22.9709 6.78934C23.5223 7.00351 23.9155 7.25953 24.3288 7.67311C24.7424 8.08668 24.9984 8.48056 25.2131 9.03199C25.3748 9.44803 25.5675 10.0733 25.62 11.2254C25.6766 12.4711 25.6889 12.8452 25.6889 15.9987C25.6889 19.1522 25.6766 19.5264 25.62 20.7721C25.5673 21.9242 25.3748 22.5494 25.2131 22.9655C24.9989 23.5169 24.7424 23.9096 24.3288 24.3229C23.9152 24.7365 23.5226 24.9925 22.9709 25.2067C22.5549 25.3691 21.9291 25.5611 20.777 25.6138C19.5313 25.6704 19.1572 25.6828 16.0022 25.6828C12.847 25.6828 12.473 25.6704 11.2274 25.6138C10.0753 25.5606 9.45 25.3681 9.03322 25.2064C8.48179 24.9922 8.08791 24.7362 7.67434 24.3226C7.26076 23.9091 7.00474 23.5162 6.79008 22.9645C6.62834 22.5485 6.43559 21.9232 6.38315 20.7711C6.32653 19.5254 6.31521 19.1512 6.31521 15.9958C6.31521 12.8403 6.32653 12.4681 6.38315 11.2225C6.43583 10.0704 6.62834 9.44507 6.79008 9.02854C7.00425 8.47711 7.26076 8.08323 7.67434 7.66966C8.08791 7.25609 8.48179 7.00007 9.03322 6.7854C9.44975 6.62293 10.0753 6.43091 11.2274 6.37798C12.3174 6.32875 12.7399 6.31398 14.9422 6.31152V6.31447ZM22.3097 8.27648C22.0292 8.27648 21.755 8.35966 21.5218 8.51549C21.2886 8.67132 21.1069 8.8928 20.9996 9.15193C20.8923 9.41106 20.8642 9.69619 20.919 9.97126C20.9737 10.2463 21.1088 10.499 21.3072 10.6973C21.5055 10.8956 21.7582 11.0306 22.0333 11.0852C22.3084 11.1399 22.5935 11.1117 22.8526 11.0043C23.1117 10.8969 23.3332 10.7151 23.4889 10.4819C23.6447 10.2486 23.7277 9.97442 23.7276 9.69395C23.7276 8.91112 23.0925 8.27599 22.3097 8.27599V8.27648ZM16.0022 9.93324C12.651 9.93324 9.93398 12.6503 9.93398 16.0014C9.93398 19.3526 12.651 22.0684 16.0022 22.0684C19.3534 22.0684 22.0696 19.3526 22.0696 16.0014C22.0696 12.6503 19.3531 9.93324 16.0019 9.93324H16.0022ZM16.0022 12.0626C18.1774 12.0626 19.941 13.826 19.941 16.0014C19.941 18.1766 18.1774 19.9402 16.0022 19.9402C13.8267 19.9402 12.0634 18.1766 12.0634 16.0014C12.0634 13.826 13.8267 12.0626 16.0022 12.0626Z" fill="white"/>
<defs>
<radialGradient id="paint0_radial_6315_210" cx="0" cy="0" r="1" gradientUnits="userSpaceOnUse" gradientTransform="translate(8.50236 34.4647) rotate(-90) scale(31.7144 29.5049)">
<stop stop-color="#FFDD55"/>
<stop offset="0.1" stop-color="#FFDD55"/>
<stop offset="0.5" stop-color="#FF543E"/>
<stop offset="1" stop-color="#C837AB"/>
</radialGradient>
<radialGradient id="paint1_radial_6315_210" cx="0" cy="0" r="1" gradientTransform="matrix(2.78327 13.9007 -57.3136 11.4759 -5.36163 2.30523)" gradientUnits="userSpaceOnUse">
<stop stop-color="#3771C8"/>
<stop offset="0.128" stop-color="#3771C8"/>
<stop offset="1" stop-color="#6600FF" stop-opacity="0"/>
</radialGradient>
</defs>
</svg>
