<svg width="168" height="54" viewBox="0 0 168 54" fill="none" xmlns="http://www.w3.org/2000/svg">
<rect x="0.710526" y="0.710526" width="166.263" height="52.5789" rx="7.81579" fill="black"/>
<rect x="0.710526" y="0.710526" width="166.263" height="52.5789" rx="7.81579" stroke="#A6A6A6" stroke-width="1.42105"/>
<path d="M25.3014 26.235L11.4956 41.2189C11.4969 41.2216 11.4969 41.2256 11.4982 41.2282C11.9222 42.8552 13.3745 44.0526 15.0991 44.0526C15.7889 44.0526 16.436 43.8617 16.991 43.5275L17.0351 43.501L32.5746 34.3316L25.3014 26.235Z" fill="#EA4335"/>
<path d="M39.268 23.6835L39.2551 23.6742L32.546 19.6975L24.9876 26.5756L32.5732 34.3301L39.246 30.3931C40.4156 29.7461 41.2105 28.485 41.2105 27.0317C41.2105 25.5864 40.4273 24.332 39.268 23.6835Z" fill="#FBBC04"/>
<path d="M11.4954 12.7801C11.4124 13.093 11.3683 13.4219 11.3683 13.7613V40.2391C11.3683 40.5786 11.4124 40.9074 11.4967 41.2191L25.7758 26.6183L11.4954 12.7801Z" fill="#4285F4"/>
<path d="M25.4035 26.9998L32.5483 19.6948L17.0269 10.4923C16.4629 10.1462 15.8042 9.94731 15.1 9.94731C13.3755 9.94731 11.9206 11.1473 11.4966 12.7757C11.4966 12.777 11.4953 12.7783 11.4953 12.7797L25.4035 26.9998Z" fill="#34A853"/>
<path d="M61.9721 17.5352C61.9721 18.9563 61.5505 20.0884 60.7074 20.9316C59.76 21.9358 58.5142 22.4379 56.97 22.4379C55.4921 22.4379 54.2416 21.9263 53.2184 20.9031C52.1953 19.88 51.6837 18.62 51.6837 17.1231C51.6837 15.6263 52.1953 14.3663 53.2184 13.3431C54.2416 12.32 55.4921 11.8084 56.97 11.8084C57.7184 11.8084 58.4242 11.941 59.0874 12.2063C59.7505 12.4716 60.2953 12.8458 60.7216 13.3289L59.7837 14.2668C59.4711 13.8879 59.0637 13.5942 58.5616 13.3858C58.0689 13.1679 57.5384 13.0589 56.97 13.0589C55.8616 13.0589 54.9237 13.4426 54.1563 14.21C53.3984 14.9868 53.0195 15.9579 53.0195 17.1231C53.0195 18.2884 53.3984 19.2595 54.1563 20.0363C54.9237 20.8037 55.8616 21.1874 56.97 21.1874C57.9837 21.1874 58.8268 20.9031 59.4995 20.3347C60.1721 19.7663 60.5605 18.9847 60.6647 17.99H56.97V16.7679H61.9011C61.9484 17.0331 61.9721 17.2889 61.9721 17.5352ZM69.5006 12.0358V13.2863H64.8679V16.5121H69.0458V17.7342H64.8679V20.96H69.5006V22.2105H63.5606V12.0358H69.5006ZM74.7299 13.2863V22.2105H73.4226V13.2863H70.5805V12.0358H77.572V13.2863H74.7299ZM83.3666 22.2105H82.0592V12.0358H83.3666V22.2105ZM88.885 13.2863V22.2105H87.5776V13.2863H84.7355V12.0358H91.7271V13.2863H88.885ZM105.898 17.1231C105.898 18.6295 105.396 19.8895 104.392 20.9031C103.378 21.9263 102.137 22.4379 100.669 22.4379C99.1909 22.4379 97.9499 21.9263 96.9457 20.9031C95.9414 19.8895 95.4393 18.6295 95.4393 17.1231C95.4393 15.6168 95.9414 14.3568 96.9457 13.3431C97.9499 12.32 99.1909 11.8084 100.669 11.8084C102.147 11.8084 103.388 12.3247 104.392 13.3574C105.396 14.371 105.898 15.6263 105.898 17.1231ZM96.7751 17.1231C96.7751 18.2979 97.1446 19.2689 97.8835 20.0363C98.632 20.8037 99.5604 21.1874 100.669 21.1874C101.777 21.1874 102.701 20.8037 103.44 20.0363C104.188 19.2784 104.562 18.3074 104.562 17.1231C104.562 15.9389 104.188 14.9679 103.44 14.21C102.701 13.4426 101.777 13.0589 100.669 13.0589C99.5604 13.0589 98.632 13.4426 97.8835 14.21C97.1446 14.9774 96.7751 15.9484 96.7751 17.1231ZM108.748 22.2105H107.441V12.0358H109.033L113.978 19.951H114.035L113.978 17.99V12.0358H115.285V22.2105H113.921L108.748 13.9116H108.692L108.748 15.8726V22.2105Z" fill="white"/>
<path d="M132.894 40.6874H135.209V25.0395H132.894V40.6874ZM153.742 30.676L151.089 37.4604H151.009L148.256 30.676H145.762L149.892 40.1579L147.539 45.4327H149.951L156.316 30.676H153.742ZM140.616 38.91C139.857 38.91 138.8 38.5282 138.8 37.5806C138.8 36.3739 140.116 35.9108 141.253 35.9108C142.271 35.9108 142.751 36.1324 143.368 36.434C143.188 37.8835 141.952 38.91 140.616 38.91ZM140.895 30.3343C139.219 30.3343 137.482 31.0791 136.766 32.7301L138.82 33.5951C139.259 32.7301 140.076 32.4472 140.935 32.4472C142.132 32.4472 143.348 33.172 143.368 34.4613V34.6215C142.949 34.3799 142.052 34.0182 140.954 34.0182C138.74 34.0182 136.485 35.2461 136.485 37.5406C136.485 39.6347 138.301 40.9841 140.335 40.9841C141.892 40.9841 142.751 40.2794 143.289 39.4532H143.368V40.6611H145.602V34.6616C145.602 31.884 143.548 30.3343 140.895 30.3343ZM126.59 32.5812H123.298V27.2175H126.59C128.321 27.2175 129.303 28.6633 129.303 29.8987C129.303 31.1116 128.321 32.5812 126.59 32.5812ZM126.531 25.0395H120.985V40.6874H123.298V34.7592H126.531C129.096 34.7592 131.618 32.8841 131.618 29.8987C131.618 26.9133 129.096 25.0395 126.531 25.0395ZM96.2881 38.9125C94.6892 38.9125 93.3508 37.5618 93.3508 35.7068C93.3508 33.8317 94.6892 32.4598 96.2881 32.4598C97.8672 32.4598 99.1051 33.8317 99.1051 35.7068C99.1051 37.5618 97.8672 38.9125 96.2881 38.9125ZM98.9463 31.5523H98.8657C98.346 30.9276 97.3474 30.3631 96.0884 30.3631C93.45 30.3631 91.0325 32.7014 91.0325 35.7068C91.0325 38.6909 93.45 41.0104 96.0884 41.0104C97.3474 41.0104 98.346 40.4458 98.8657 39.7999H98.9463V40.5673C98.9463 42.6038 97.8672 43.6928 96.1281 43.6928C94.7091 43.6928 93.8296 42.6639 93.4699 41.7965L91.4517 42.6439C92.031 44.0558 93.5704 45.7895 96.1281 45.7895C98.8459 45.7895 101.144 44.176 101.144 40.2443V30.6848H98.9463V31.5523ZM102.743 40.6874H105.062V25.0382H102.743V40.6874ZM108.478 35.5253C108.418 33.4687 110.057 32.4197 111.235 32.4197C112.156 32.4197 112.935 32.8829 113.194 33.5488L108.478 35.5253ZM115.672 33.7503C115.233 32.5612 113.893 30.3631 111.156 30.3631C108.438 30.3631 106.18 32.5198 106.18 35.6867C106.18 38.6709 108.418 41.0104 111.415 41.0104C113.834 41.0104 115.233 39.5183 115.812 38.6508L114.014 37.4404C113.415 38.3279 112.595 38.9125 111.415 38.9125C110.237 38.9125 109.397 38.368 108.857 37.3002L115.912 34.3549L115.672 33.7503ZM59.4712 31.9966V34.2548H64.8261C64.6661 35.5253 64.2468 36.4528 63.608 37.0974C62.8278 37.8848 61.6084 38.7522 59.4712 38.7522C56.1729 38.7522 53.5953 36.0698 53.5953 32.7427C53.5953 29.4143 56.1729 26.7331 59.4712 26.7331C61.25 26.7331 62.5487 27.4391 63.5075 28.3466L65.0866 26.7531C63.7469 25.4626 61.9694 24.4737 59.4712 24.4737C54.9548 24.4737 51.1579 28.1851 51.1579 32.7427C51.1579 37.3002 54.9548 41.0104 59.4712 41.0104C61.9086 41.0104 63.7469 40.203 65.1858 38.6909C66.6656 37.1988 67.1246 35.1022 67.1246 33.4073C67.1246 32.8829 67.0849 32.3997 67.0043 31.9966H59.4712ZM73.2138 38.9125C71.6149 38.9125 70.2356 37.5819 70.2356 35.6867C70.2356 33.7703 71.6149 32.4598 73.2138 32.4598C74.8115 32.4598 76.1908 33.7703 76.1908 35.6867C76.1908 37.5819 74.8115 38.9125 73.2138 38.9125ZM73.2138 30.3631C70.2951 30.3631 67.9172 32.6012 67.9172 35.6867C67.9172 38.7522 70.2951 41.0104 73.2138 41.0104C76.1313 41.0104 78.5092 38.7522 78.5092 35.6867C78.5092 32.6012 76.1313 30.3631 73.2138 30.3631ZM84.7659 38.9125C83.167 38.9125 81.7876 37.5819 81.7876 35.6867C81.7876 33.7703 83.167 32.4598 84.7659 32.4598C86.3648 32.4598 87.7429 33.7703 87.7429 35.6867C87.7429 37.5819 86.3648 38.9125 84.7659 38.9125ZM84.7659 30.3631C81.8484 30.3631 79.4705 32.6012 79.4705 35.6867C79.4705 38.7522 81.8484 41.0104 84.7659 41.0104C87.6833 41.0104 90.0612 38.7522 90.0612 35.6867C90.0612 32.6012 87.6833 30.3631 84.7659 30.3631Z" fill="white"/>
</svg>
